<svg width="50" height="50" viewBox="0 0 50 50" fill="none" xmlns="http://www.w3.org/2000/svg">
<path d="M50 0H0V50H50V0Z" fill="white"/>
<path d="M11.9259 16.6667C11.9505 16.4636 11.9245 16.2575 11.8502 16.0669C11.7759 15.8763 11.6556 15.707 11.5 15.5741L8.37038 11.8704V11.2778H18.1111L25.6296 27.7778L32.2593 11.2593H41.5185V11.8519L38.8889 14.4259C38.7787 14.5124 38.6933 14.6265 38.6413 14.7565C38.5893 14.8866 38.5725 15.0281 38.5926 15.1667V34.0556C38.5728 34.1969 38.5897 34.341 38.6416 34.4739C38.6935 34.6068 38.7786 34.7242 38.8889 34.8148L41.5185 37.3889V37.9445H28.2963V37.3889L31.0185 34.7593C31.2778 34.4815 31.2778 34.4074 31.2778 34V18.7222L23.7408 37.8889H22.7222L13.9445 18.7222V31.5741C13.9057 31.8386 13.929 32.1085 14.0125 32.3624C14.0961 32.6163 14.2377 32.8473 14.4259 33.0371L17.9445 37.3148V37.8889H7.94446V37.3148L11.4815 33.0371C11.6657 32.8455 11.8019 32.6131 11.8792 32.3589C11.9564 32.1046 11.9724 31.8357 11.9259 31.5741V16.6667Z" fill="black"/>
</svg>
