<svg width="37" height="37" viewBox="0 0 37 37" fill="none" xmlns="http://www.w3.org/2000/svg">
<path fill-rule="evenodd" clip-rule="evenodd" d="M8.09375 4.04688C8.09375 6.2819 6.2819 8.09375 4.04688 8.09375C1.81185 8.09375 0 6.2819 0 4.04688C0 1.81185 1.81185 0 4.04688 0C6.2819 0 8.09375 1.81185 8.09375 4.04688ZM0 11.5625H8.27413V37H0V11.5625ZM30.8118 11.8608C30.7825 11.8516 30.7537 11.8421 30.7249 11.8325C30.6673 11.8135 30.6098 11.7945 30.5481 11.7776C30.4371 11.7521 30.3261 11.7313 30.2128 11.7128C29.7734 11.6249 29.2924 11.5625 28.7282 11.5625C23.9043 11.5625 20.8449 15.0706 19.8366 16.4257V11.5625H11.5625V37H19.8366V23.125C19.8366 23.125 26.0896 14.4161 28.7282 20.8125V37H37V19.8343C37 15.9909 34.3661 12.7881 30.8118 11.8608Z" fill="white"/>
</svg>
