<svg width="553" height="202" viewBox="0 0 553 202" fill="none" xmlns="http://www.w3.org/2000/svg">
<path d="M79.7079 135.273H35.6675L27.2949 160.456H0.585938L45.966 38.235H69.242L114.873 160.456H88.1643L79.7079 135.273ZM42.4494 114.875H72.9261L57.604 69.1259L42.4494 114.875ZM150.206 160.456H125.925V69.6296H150.206V160.456ZM124.502 46.1256C124.502 42.4881 125.702 39.4941 128.102 37.1437C130.558 34.7934 133.879 33.618 138.066 33.618C142.196 33.618 145.489 34.7934 147.945 37.1437C150.402 39.4941 151.629 42.4881 151.629 46.1256C151.629 49.819 150.373 52.841 147.862 55.1913C145.406 57.5419 142.14 58.717 138.066 58.717C133.991 58.717 130.698 57.5419 128.186 55.1913C125.73 52.841 124.502 49.819 124.502 46.1256ZM221.123 92.3781C217.829 91.9304 214.927 91.7065 212.415 91.7065C203.261 91.7065 197.261 94.8124 194.414 101.024V160.456H170.217V69.6296H193.074L193.744 80.4583C198.6 72.1198 205.326 67.9507 213.922 67.9507C216.602 67.9507 219.114 68.3145 221.457 69.042L221.123 92.3781ZM314.478 115.882C314.478 130.432 311.38 141.792 305.184 149.963C298.989 158.078 290.338 162.135 279.229 162.135C269.405 162.135 261.563 158.357 255.702 150.803L254.614 160.456H232.844V31.5195H257.042V77.7721C262.623 71.2244 269.964 67.9507 279.062 67.9507C290.113 67.9507 298.766 72.036 305.017 80.2064C311.325 88.3208 314.478 99.765 314.478 114.539V115.882ZM290.282 114.119C290.282 104.942 288.83 98.254 285.928 94.0569C283.024 89.8038 278.699 87.6772 272.95 87.6772C265.247 87.6772 259.944 90.839 257.042 97.1628V133.006C260 139.386 265.358 142.576 273.118 142.576C280.932 142.576 286.067 138.714 288.523 130.992C289.695 127.298 290.282 121.674 290.282 114.119ZM325.698 114.203C325.698 105.193 327.429 97.1628 330.888 90.1116C334.349 83.0605 339.318 77.6042 345.792 73.7428C352.322 69.8813 359.886 67.9507 368.482 67.9507C380.707 67.9507 390.669 71.7002 398.373 79.199C406.132 86.6979 410.457 96.883 411.35 109.754L411.518 115.966C411.518 129.901 407.638 141.093 399.88 149.543C392.121 157.937 381.711 162.135 368.649 162.135C355.589 162.135 345.15 157.937 337.336 149.543C329.578 141.149 325.698 129.733 325.698 115.295V114.203ZM349.895 115.966C349.895 124.584 351.514 131.188 354.751 135.776C357.988 140.309 362.622 142.576 368.649 142.576C374.511 142.576 379.088 140.337 382.382 135.86C385.674 131.328 387.321 124.108 387.321 114.203C387.321 105.753 385.674 99.2054 382.382 94.5606C379.088 89.9157 374.455 87.5933 368.482 87.5933C362.565 87.5933 357.988 89.9157 354.751 94.5606C351.514 99.1494 349.895 106.285 349.895 115.966ZM459.076 96.743L474.314 69.6296H500.185L474.397 114.119L501.274 160.456H475.318L459.159 131.915L443.083 160.456H417.043L443.92 114.119L418.216 69.6296H444.172L459.076 96.743ZM513.078 148.536C513.078 144.674 514.363 141.541 516.931 139.134C519.554 136.728 522.819 135.525 526.726 135.525C530.69 135.525 533.955 136.728 536.523 139.134C539.146 141.541 540.458 144.674 540.458 148.536C540.458 152.341 539.173 155.447 536.606 157.854C534.038 160.204 530.746 161.38 526.726 161.38C522.763 161.38 519.498 160.204 516.931 157.854C514.363 155.447 513.078 152.341 513.078 148.536Z" fill="black"/>
<path d="M411.536 54.4453H324.371V163.325H411.536V54.4453Z" fill="white"/>
<path d="M374.39 85.6116H391.188C391.188 94.8494 383.603 102.454 374.39 102.454C365.176 102.454 357.591 94.8494 357.591 85.6116C357.591 76.3739 365.176 68.7695 374.39 68.7695C374.477 68.7695 374.571 68.7695 374.658 68.7695L374.39 85.6116Z" fill="#E96E62"/>
<path d="M345.455 114.616V97.7734C354.669 97.7734 362.254 105.378 362.254 114.616C362.254 123.853 354.669 131.458 345.455 131.458C336.241 131.458 328.656 123.853 328.656 114.616C328.656 114.56 328.656 114.513 328.656 114.457L345.455 114.616Z" fill="black"/>
<path d="M403.312 114.616L403.549 131.458C403.469 131.458 403.391 131.458 403.312 131.458C394.097 131.458 386.512 123.853 386.512 114.616C386.512 105.378 394.097 97.7734 403.312 97.7734C412.526 97.7734 420.111 105.378 420.111 114.616H403.312Z" fill="black"/>
<path d="M374.39 143.624L357.591 143.488C357.661 134.298 365.223 126.781 374.39 126.781C383.603 126.781 391.188 134.386 391.188 143.624C391.188 152.862 383.603 160.466 374.39 160.466V143.624Z" fill="black"/>
</svg>
