<svg width="252" height="92" viewBox="0 0 252 92" fill="none" xmlns="http://www.w3.org/2000/svg">
<path d="M36.3251 61.6075H16.2561L12.4407 73.0769H0.269531L20.9491 17.412H31.5559L52.3498 73.0769H40.1787L36.3251 61.6075ZM19.3465 52.3173H33.2347L26.2525 31.4812L19.3465 52.3173ZM68.4507 73.0769H57.3862V31.7106H68.4507V73.0769ZM56.7376 21.0058C56.7376 19.3491 57.2845 17.9855 58.3782 16.915C59.4974 15.8446 61.0108 15.3093 62.9185 15.3093C64.8008 15.3093 66.3013 15.8446 67.4206 16.915C68.54 17.9855 69.0993 19.3491 69.0993 21.0058C69.0993 22.6879 68.5269 24.0643 67.3828 25.1347C66.2635 26.2053 64.7754 26.7405 62.9185 26.7405C61.0617 26.7405 59.5609 26.2053 58.4163 25.1347C57.2972 24.0643 56.7376 22.6879 56.7376 21.0058ZM100.767 42.0713C99.2664 41.8674 97.9439 41.7654 96.7991 41.7654C92.6278 41.7654 89.8935 43.18 88.5964 46.0091V73.0769H77.5696V31.7106H87.9856L88.291 36.6424C90.5037 32.8447 93.5687 30.9459 97.4861 30.9459C98.707 30.9459 99.8518 31.1116 100.92 31.4429L100.767 42.0713ZM143.309 52.776C143.309 59.4029 141.897 64.5768 139.074 68.2981C136.25 71.9938 132.308 73.8416 127.246 73.8416C122.769 73.8416 119.196 72.121 116.525 68.6805L116.029 73.0769H106.109V14.3535H117.136V35.419C119.679 32.4369 123.024 30.9459 127.17 30.9459C132.206 30.9459 136.149 32.8066 138.998 36.5277C141.872 40.2234 143.309 45.4356 143.309 52.1643V52.776ZM132.283 51.9732C132.283 47.7932 131.621 44.7474 130.299 42.8359C128.976 40.8988 127.005 39.9303 124.385 39.9303C120.875 39.9303 118.458 41.3703 117.136 44.2504V60.5752C118.483 63.4809 120.925 64.9336 124.461 64.9336C128.022 64.9336 130.362 63.175 131.481 59.6577C132.015 57.9755 132.283 55.414 132.283 51.9732ZM148.422 52.0114C148.422 47.9079 149.211 44.2504 150.787 41.039C152.364 37.8276 154.628 35.3426 157.579 33.5839C160.554 31.8252 164.001 30.9459 167.918 30.9459C173.489 30.9459 178.029 32.6536 181.54 36.0689C185.075 39.4843 187.046 44.123 187.453 49.9852L187.53 52.8143C187.53 59.1607 185.762 64.2582 182.226 68.107C178.691 71.9299 173.947 73.8416 167.995 73.8416C162.043 73.8416 157.286 71.9299 153.725 68.107C150.19 64.2837 148.422 59.0842 148.422 52.5085V52.0114ZM159.448 52.8143C159.448 56.7393 160.186 59.7469 161.661 61.8369C163.136 63.9014 165.248 64.9336 167.995 64.9336C170.666 64.9336 172.751 63.9141 174.252 61.8751C175.753 59.8106 176.503 56.5227 176.503 52.0114C176.503 48.1628 175.753 45.1808 174.252 43.0653C172.751 40.9498 170.64 39.8921 167.918 39.8921C165.222 39.8921 163.136 40.9498 161.661 43.0653C160.186 45.1552 159.448 48.4049 159.448 52.8143ZM209.202 44.0593L216.146 31.7106H227.935L216.183 51.9732L228.431 73.0769H216.603L209.239 60.0782L201.914 73.0769H190.048L202.295 51.9732L190.582 31.7106H202.41L209.202 44.0593ZM233.81 67.6483C233.81 65.8892 234.396 64.4621 235.566 63.3662C236.761 62.2702 238.249 61.7222 240.03 61.7222C241.836 61.7222 243.324 62.2702 244.494 63.3662C245.689 64.4621 246.287 65.8892 246.287 67.6483C246.287 69.3813 245.702 70.7958 244.532 71.892C243.362 72.9621 241.861 73.4978 240.03 73.4978C238.224 73.4978 236.736 72.9621 235.566 71.892C234.396 70.7958 233.81 69.3813 233.81 67.6483Z" fill="black"/>
<path d="M187.537 24.7949H147.816V74.3836H187.537V24.7949Z" fill="white"/>
<path d="M170.604 38.991H178.259C178.259 43.1983 174.803 46.6616 170.604 46.6616C166.406 46.6616 162.949 43.1983 162.949 38.991C162.949 34.7837 166.406 31.3203 170.604 31.3203C170.644 31.3203 170.687 31.3203 170.727 31.3203L170.604 38.991Z" fill="#E96E62"/>
<path d="M157.421 52.2009V44.5303C161.619 44.5303 165.076 47.9936 165.076 52.2009C165.076 56.4083 161.619 59.8716 157.421 59.8716C153.222 59.8716 149.766 56.4083 149.766 52.2009C149.766 52.1757 149.766 52.154 149.766 52.1287L157.421 52.2009Z" fill="black"/>
<path d="M183.789 52.2019L183.897 59.8726C183.86 59.8726 183.824 59.8726 183.789 59.8726C179.589 59.8726 176.133 56.4092 176.133 52.2019C176.133 47.9946 179.589 44.5312 183.789 44.5312C187.987 44.5312 191.444 47.9946 191.444 52.2019H183.789Z" fill="black"/>
<path d="M170.604 65.4112L162.949 65.3492C162.981 61.1639 166.427 57.7402 170.604 57.7402C174.803 57.7402 178.259 61.2036 178.259 65.4112C178.259 69.6184 174.803 73.0818 170.604 73.0818V65.4112Z" fill="black"/>
</svg>
