<svg width="327" height="119" viewBox="0 0 327 119" fill="none" xmlns="http://www.w3.org/2000/svg">
<path d="M47.1338 79.6894H21.0918L16.1409 94.5248H0.347382L27.1815 22.5235H40.9451L67.9278 94.5248H52.1343L47.1338 79.6894ZM25.1021 67.6727H43.1236L34.0633 40.7216L25.1021 67.6727ZM88.8206 94.5248H74.463V41.0184H88.8206V94.5248ZM73.6214 27.1719C73.6214 25.0291 74.331 23.2653 75.7502 21.8806C77.2026 20.496 79.1664 19.8036 81.6419 19.8036C84.0844 19.8036 86.0314 20.496 87.4839 21.8806C88.9364 23.2653 89.6622 25.0291 89.6622 27.1719C89.6622 29.3478 88.9195 31.128 87.4349 32.5127C85.9824 33.8974 84.0514 34.5897 81.6419 34.5897C79.2324 34.5897 77.285 33.8974 75.7998 32.5127C74.3475 31.128 73.6214 29.3478 73.6214 27.1719ZM130.755 54.4197C128.808 54.156 127.091 54.0241 125.606 54.0241C120.193 54.0241 116.645 55.8538 114.962 59.5132V94.5248H100.653V41.0184H114.169L114.566 47.3976C117.437 42.4854 121.414 40.0293 126.497 40.0293C128.082 40.0293 129.567 40.2436 130.953 40.6722L130.755 54.4197ZM185.958 68.2661C185.958 76.8377 184.126 83.5302 180.463 88.3436C176.799 93.1238 171.683 95.514 165.115 95.514C159.306 95.514 154.668 93.2884 151.202 88.8381L150.559 94.5248H137.686V18.5674H151.995V45.8152C155.295 41.9579 159.636 40.0293 165.016 40.0293C171.551 40.0293 176.667 42.436 180.364 47.2493C184.093 52.0295 185.958 58.7714 185.958 67.4749V68.2661ZM171.65 67.2276C171.65 61.8209 170.792 57.8813 169.076 55.4087C167.359 52.9032 164.801 51.6504 161.402 51.6504C156.847 51.6504 153.711 53.513 151.995 57.2384V78.3542C153.744 82.1125 156.913 83.9916 161.501 83.9916C166.122 83.9916 169.158 81.7169 170.61 77.1674C171.303 74.9915 171.65 71.6783 171.65 67.2276ZM192.593 67.277C192.593 61.9693 193.616 57.2384 195.662 53.0845C197.708 48.9306 200.646 45.7163 204.475 43.4415C208.336 41.1667 212.809 40.0293 217.892 40.0293C225.12 40.0293 231.012 42.2382 235.567 46.6558C240.155 51.0735 242.713 57.0736 243.241 64.6562L243.34 68.3155C243.34 76.5245 241.045 83.118 236.458 88.0963C231.87 93.0411 225.714 95.514 217.991 95.514C210.268 95.514 204.095 93.0411 199.474 88.0963C194.887 83.151 192.593 76.4256 192.593 67.92V67.277ZM206.901 68.3155C206.901 73.3925 207.858 77.2827 209.773 79.9861C211.686 82.6565 214.427 83.9916 217.991 83.9916C221.457 83.9916 224.163 82.6729 226.111 80.0355C228.058 77.3652 229.032 73.1123 229.032 67.277C229.032 62.299 228.058 58.4417 226.111 55.7054C224.163 52.9691 221.424 51.6009 217.892 51.6009C214.393 51.6009 211.686 52.9691 209.773 55.7054C207.858 58.4087 206.901 62.6121 206.901 68.3155ZM271.462 56.9911L280.472 41.0184H295.77L280.521 67.2276L296.414 94.5248H281.066L271.511 77.7113L262.005 94.5248H246.607L262.5 67.2276L247.301 41.0184H262.649L271.462 56.9911ZM303.394 87.503C303.394 85.2276 304.154 83.3818 305.672 81.9642C307.224 80.5465 309.154 79.8378 311.465 79.8378C313.808 79.8378 315.739 80.5465 317.258 81.9642C318.809 83.3818 319.585 85.2276 319.585 87.503C319.585 89.7446 318.825 91.5743 317.307 92.9922C315.788 94.3763 313.841 95.0692 311.465 95.0692C309.121 95.0692 307.191 94.3763 305.672 92.9922C304.154 91.5743 303.394 89.7446 303.394 87.503Z" fill="black"/>
<path d="M243.351 32.0742H191.809V96.2161H243.351V32.0742Z" fill="white"/>
<path d="M221.383 50.4335H231.316C231.316 55.8756 226.831 60.3553 221.383 60.3553C215.935 60.3553 211.449 55.8756 211.449 50.4335C211.449 44.9915 215.935 40.5117 221.383 40.5117C221.434 40.5117 221.49 40.5117 221.542 40.5117L221.383 50.4335Z" fill="#E96E62"/>
<path d="M204.273 67.5195V57.5977C209.721 57.5977 214.207 62.0774 214.207 67.5195C214.207 72.9616 209.721 77.4413 204.273 77.4413C198.825 77.4413 194.34 72.9616 194.34 67.5195C194.34 67.4868 194.34 67.4588 194.34 67.4261L204.273 67.5195Z" fill="black"/>
<path d="M238.485 67.5195L238.625 77.4413C238.578 77.4413 238.531 77.4413 238.485 77.4413C233.036 77.4413 228.551 72.9616 228.551 67.5195C228.551 62.0774 233.036 57.5977 238.485 57.5977C243.933 57.5977 248.418 62.0774 248.418 67.5195H238.485Z" fill="black"/>
<path d="M221.383 84.6088L211.449 84.5286C211.491 79.1149 215.962 74.6865 221.383 74.6865C226.831 74.6865 231.316 79.1663 231.316 84.6088C231.316 90.0507 226.831 94.5305 221.383 94.5305V84.6088Z" fill="black"/>
</svg>
