<svg width="46" height="37" viewBox="0 0 46 37" fill="none" xmlns="http://www.w3.org/2000/svg">
<path d="M46 4.38023C44.2894 5.12308 42.4666 5.61546 40.5663 5.85454C42.5213 4.699 44.0134 2.88315 44.7149 0.694462C42.8921 1.77031 40.8796 2.53023 38.7349 2.95431C37.0041 1.12992 34.5374 0 31.8464 0C26.6254 0 22.4221 4.19523 22.4221 9.33823C22.4221 10.0782 22.4854 10.7898 22.6406 11.4672C14.8005 11.0886 7.86312 7.36869 3.20275 1.702C2.38912 3.09946 1.91187 4.699 1.91187 6.42092C1.91187 9.65415 3.59375 12.5202 6.10075 14.1795C4.58563 14.1511 3.09925 13.7156 1.84 13.0297C1.84 13.0582 1.84 13.0952 1.84 13.1322C1.84 17.6689 5.10887 21.4372 9.3955 22.3053C8.62787 22.5131 7.79125 22.6127 6.923 22.6127C6.31925 22.6127 5.70975 22.5785 5.13762 22.4533C6.3595 26.1505 9.82675 28.8685 13.9495 28.9568C10.741 31.4415 6.66713 32.9385 2.25687 32.9385C1.4835 32.9385 0.74175 32.9044 0 32.8105C4.17738 35.4773 9.12812 37 14.467 37C31.8205 37 41.308 22.7692 41.308 10.434C41.308 10.0213 41.2936 9.62285 41.2735 9.22723C43.1451 7.91231 44.7177 6.27008 46 4.38023Z" fill="white"/>
</svg>
