<svg width="47" height="37" viewBox="0 0 47 37" fill="none" xmlns="http://www.w3.org/2000/svg">
<path d="M5.94389 7.54369C5.9735 7.25875 5.93548 6.97084 5.83294 6.70334C5.7304 6.43585 5.56622 6.1963 5.35374 6.00416L1.0174 0.769764V0H14.5139L24.9314 22.862L34.1173 0H46.9467V0.769764L43.2518 4.33634C43.0949 4.45845 42.974 4.62066 42.9017 4.80584C42.8295 4.99102 42.8086 5.19228 42.8413 5.38835V31.5603C42.8086 31.7564 42.8295 31.9577 42.9017 32.1428C42.974 32.328 43.0949 32.4902 43.2518 32.6123L46.8697 36.1789V36.9487H28.6519V36.1789L32.4238 32.5097C32.783 32.1505 32.783 32.0479 32.783 31.4834V10.2635L22.3142 36.8717H20.9543L8.71504 10.2635V28.2247C8.67383 28.5967 8.71449 28.9731 8.83417 29.3277C8.95384 29.6823 9.14964 30.0065 9.40783 30.2774L14.283 36.2046V37H0.427246V36.2046L5.32808 30.2774C5.58198 30.0058 5.76967 29.6793 5.87649 29.3232C5.98331 28.9671 6.00638 28.5912 5.94389 28.2247V7.54369Z" fill="white"/>
</svg>
