<svg width="41" height="41" viewBox="0 0 41 41" fill="none" xmlns="http://www.w3.org/2000/svg">
<path d="M41 7.36166C39.4753 8.03047 37.8507 8.47378 36.1569 8.68903C37.8994 7.64866 39.2293 6.01378 39.8546 4.04322C38.2299 5.01184 36.4362 5.69603 34.5246 6.07784C32.9819 4.43528 30.7833 3.41797 28.3848 3.41797C23.7313 3.41797 19.9849 7.19509 19.9849 11.8255C19.9849 12.4918 20.0413 13.1324 20.1797 13.7423C13.1918 13.4015 7.00844 10.0523 2.85463 4.95034C2.12944 6.20853 1.70406 7.64866 1.70406 9.19897C1.70406 12.11 3.20313 14.6904 5.43763 16.1843C4.08719 16.1587 2.76238 15.7667 1.64 15.1491C1.64 15.1747 1.64 15.208 1.64 15.2413C1.64 19.326 4.55356 22.7187 8.37425 23.5003C7.69006 23.6873 6.94438 23.777 6.1705 23.777C5.63238 23.777 5.08913 23.7463 4.57919 23.6335C5.66825 26.9622 8.75862 29.4094 12.4333 29.4888C9.5735 31.7259 5.94244 33.0738 2.01156 33.0738C1.32225 33.0738 0.661125 33.043 0 32.9585C3.72331 35.3595 8.13594 36.7305 12.8945 36.7305C28.3618 36.7305 36.818 23.918 36.818 12.8121C36.818 12.4405 36.8052 12.0818 36.7873 11.7256C38.4554 10.5417 39.8571 9.06316 41 7.36166Z" fill="white"/>
</svg>
