<svg xmlns="http://www.w3.org/2000/svg" viewBox="0 0 18.14 14.4"><defs><style>.cls-1{fill:#fff;}</style></defs><g id="Layer_2" data-name="Layer 2"><g id="Layer_1-2" data-name="Layer 1"><path id="Shape" class="cls-1" d="M2.15,2.94a.71.71,0,0,0-.23-.6L.23.3V0H5.49L9.55,8.91,13.13,0h5V.3L16.69,1.69a.43.43,0,0,0-.16.41V12.3a.43.43,0,0,0,.16.41L18.1,14.1v.3H11v-.3l1.47-1.43c.14-.14.14-.18.14-.4V4L8.53,14.37H8L3.23,4V11a1,1,0,0,0,.27.8l1.9,2.31v.31H0v-.31l1.91-2.31a.94.94,0,0,0,.24-.8Z"/></g></g></svg>