<svg width="142" height="52" viewBox="0 0 142 52" fill="none" xmlns="http://www.w3.org/2000/svg">
<path d="M20.4694 34.8221H9.16063L7.0107 41.3048H0.152344L11.8051 9.842H17.7819L29.4992 41.3048H22.6408L20.4694 34.8221ZM10.9021 29.5711H18.7279L14.7935 17.7941L10.9021 29.5711ZM38.5719 41.3048H32.3371V17.9238H38.5719V41.3048ZM31.9716 11.8732C31.9716 10.9369 32.2798 10.1661 32.8961 9.56109C33.5268 8.95605 34.3796 8.65349 35.4546 8.65349C36.5152 8.65349 37.3607 8.95605 37.9914 9.56109C38.6222 10.1661 38.9374 10.9369 38.9374 11.8732C38.9374 12.824 38.6148 13.602 37.9702 14.207C37.3394 14.8121 36.5009 15.1146 35.4546 15.1146C34.4082 15.1146 33.5626 14.8121 32.9176 14.207C32.287 13.602 31.9716 12.824 31.9716 11.8732ZM56.782 23.7798C55.9363 23.6646 55.191 23.607 54.546 23.607C52.1955 23.607 50.6548 24.4065 49.9238 26.0056V41.3048H43.7103V17.9238H49.5797L49.7518 20.7114C50.9986 18.5648 52.7257 17.4916 54.9331 17.4916C55.6211 17.4916 56.2661 17.5852 56.8679 17.7725L56.782 23.7798ZM80.754 29.8304C80.754 33.5759 79.9585 36.5004 78.3675 38.6037C76.7765 40.6926 74.5552 41.737 71.7027 41.737C69.1801 41.737 67.1664 40.7645 65.6613 38.8198L65.382 41.3048H59.7919V8.11328H66.0054V20.0199C67.4386 18.3343 69.3235 17.4916 71.6598 17.4916C74.4976 17.4916 76.7193 18.5433 78.3246 20.6465C79.9442 22.7354 80.754 25.6814 80.754 29.4846V29.8304ZM74.5408 29.3766C74.5408 27.014 74.1681 25.2925 73.4228 24.212C72.6772 23.1172 71.5666 22.5697 70.0904 22.5697C68.1123 22.5697 66.7507 23.3836 66.0054 25.0115V34.2386C66.765 35.8809 68.1409 36.702 70.1333 36.702C72.1401 36.702 73.4584 35.708 74.0892 33.72C74.39 32.7692 74.5408 31.3214 74.5408 29.3766ZM83.6351 29.3982C83.6351 27.0788 84.0794 25.0115 84.9678 23.1964C85.8564 21.3812 87.1322 19.9767 88.7948 18.9826C90.4716 17.9886 92.4138 17.4916 94.6212 17.4916C97.7602 17.4916 100.318 18.4568 102.297 20.3872C104.289 22.3176 105.4 24.9395 105.629 28.2529L105.672 29.852C105.672 33.4391 104.676 36.3203 102.684 38.4957C100.691 40.6564 98.0182 41.737 94.6641 41.737C91.3104 41.737 88.63 40.6564 86.6233 38.4957C84.6313 36.3347 83.6351 33.3959 83.6351 29.6791V29.3982ZM89.8482 29.852C89.8482 32.0705 90.2639 33.7704 91.0954 34.9517C91.9265 36.1186 93.1164 36.702 94.6641 36.702C96.1692 36.702 97.3445 36.1258 98.1903 34.9733C99.0357 33.8064 99.4587 31.948 99.4587 29.3982C99.4587 27.2229 99.0357 25.5374 98.1903 24.3417C97.3445 23.146 96.1549 22.5481 94.6212 22.5481C93.1018 22.5481 91.9265 23.146 91.0954 24.3417C90.2639 25.523 89.8482 27.3597 89.8482 29.852ZM117.884 24.9035L121.797 17.9238H128.44L121.818 29.3766L128.72 41.3048H122.055L117.905 33.9577L113.777 41.3048H107.091L113.992 29.3766L107.392 17.9238H114.057L117.884 24.9035ZM131.751 38.2364C131.751 37.2421 132.081 36.4355 132.74 35.8161C133.414 35.1966 134.252 34.8869 135.255 34.8869C136.273 34.8869 137.111 35.1966 137.771 35.8161C138.445 36.4355 138.781 37.2421 138.781 38.2364C138.781 39.2159 138.451 40.0155 137.792 40.635C137.133 41.2399 136.287 41.5426 135.255 41.5426C134.238 41.5426 133.399 41.2399 132.74 40.635C132.081 40.0155 131.751 39.2159 131.751 38.2364Z" fill="black"/>
<path d="M105.674 14.0148H83.292V42.0432H105.674V14.0148Z" fill="white"/>
<path d="M96.1379 22.0388H100.451C100.451 24.4168 98.5038 26.3744 96.1379 26.3744C93.772 26.3744 91.8243 24.4168 91.8243 22.0388C91.8243 19.6607 93.772 17.7032 96.1379 17.7032C96.1603 17.7032 96.1845 17.7032 96.2069 17.7032L96.1379 22.0388Z" fill="#E96E62"/>
<path d="M88.7076 29.505V25.1694C91.0735 25.1694 93.0211 27.127 93.0211 29.505C93.0211 31.8831 91.0735 33.8406 88.7076 33.8406C86.3416 33.8406 84.394 31.8831 84.394 29.505C84.394 29.4907 84.394 29.4785 84.394 29.4642L88.7076 29.505Z" fill="black"/>
<path d="M103.564 29.505L103.625 33.8406C103.604 33.8406 103.584 33.8406 103.564 33.8406C101.198 33.8406 99.2501 31.8831 99.2501 29.505C99.2501 27.127 101.198 25.1694 103.564 25.1694C105.93 25.1694 107.878 27.127 107.878 29.505H103.564Z" fill="black"/>
<path d="M96.1379 36.9724L91.8243 36.9374C91.8423 34.5717 93.7841 32.6366 96.1379 32.6366C98.5038 32.6366 100.451 34.5942 100.451 36.9724C100.451 39.3504 98.5038 41.3079 96.1379 41.3079V36.9724Z" fill="black"/>
</svg>
