<svg width="377" height="48" viewBox="0 0 377 48" fill="none" xmlns="http://www.w3.org/2000/svg">
<path d="M3.00488 37H0.441406V1.96582H3.00488V37ZM10.8174 24.3047L33.791 47.2783H30.1777L7.2041 24.3047L29.665 1.91699H33.3027L10.8174 24.3047Z" fill="#E13389"/>
<path d="M41.2861 29.041L37.1846 37.0488H34.3281L52.7363 0.989258L71.1934 37.0488H68.4346L64.3086 29.041H41.2861ZM62.9902 26.4775L52.7363 6.60449L42.5801 26.4775H62.9902ZM100.393 14.6367C100.393 19.0638 98.8138 22.3923 95.6562 24.6221C93.6543 26.0218 91.2454 26.8844 88.4297 27.21L98.4883 37H94.7041L84.7432 27.3076L82.1797 24.7686H84.2061C88.0635 24.7686 90.8792 24.3291 92.6533 23.4502C96.055 21.7575 97.7559 18.8197 97.7559 14.6367C97.7559 10.4701 96.055 7.53223 92.6533 5.82324C90.8955 4.94434 88.4867 4.50488 85.4268 4.50488H77.4189V37H74.8555V1.96582H85.4268C88.8122 1.96582 91.6198 2.51107 93.8496 3.60156C98.2116 5.73372 100.393 9.41211 100.393 14.6367ZM107.009 37H104.445V1.96582H107.009V37ZM114.479 11.5361V37H111.916V1.20898L129.25 32.6055L146.56 1.20898V37H143.996V11.5361L129.25 37.7324L114.479 11.5361ZM177.565 13.5381C179.974 14.4495 181.911 15.9551 183.376 18.0547C184.906 20.1868 185.671 22.555 185.671 25.1592C185.671 28.5934 184.434 31.515 181.96 33.9238C179.486 36.3652 176.516 37.5859 173.049 37.5859C169.598 37.5859 166.652 36.3896 164.211 33.9971C161.753 31.6208 160.492 28.7399 160.427 25.3545H162.941C163.007 28.04 164.024 30.3268 165.993 32.2148C167.963 34.1191 170.314 35.0713 173.049 35.0713C175.832 35.0713 178.2 34.0947 180.153 32.1416C182.139 30.2048 183.132 27.8773 183.132 25.1592C183.132 22.4085 182.147 20.0648 180.178 18.1279C178.192 16.1748 175.987 15.1413 173.562 15.0273C171.153 14.8971 169.468 14.4007 168.508 13.5381C168.312 13.3753 168.182 13.2614 168.117 13.1963C166.75 11.8454 166.075 10.2178 166.091 8.31348C166.091 6.3929 166.774 4.75716 168.142 3.40625C169.476 2.05534 171.104 1.37988 173.024 1.37988C174.945 1.37988 176.597 2.05534 177.98 3.40625C179.331 4.75716 180.007 6.3929 180.007 8.31348H177.492C177.492 7.09277 177.053 6.05111 176.174 5.18848C175.295 4.32585 174.245 3.89453 173.024 3.89453C171.804 3.89453 170.77 4.32585 169.924 5.18848C169.061 6.05111 168.63 7.09277 168.63 8.31348C168.63 9.50163 169.061 10.527 169.924 11.3896C170.591 12.0895 171.739 12.4964 173.366 12.6104C174.994 12.708 176.394 13.0173 177.565 13.5381ZM206.838 34.876C211.102 34.876 214.748 33.3704 217.775 30.3594C220.786 27.332 222.292 23.6862 222.292 19.4219C222.292 15.1576 220.786 11.5117 217.775 8.48438C214.748 5.47331 211.102 3.96777 206.838 3.96777C202.574 3.96777 198.928 5.47331 195.9 8.48438C192.889 11.5117 191.384 15.1576 191.384 19.4219C191.384 23.6862 192.889 27.332 195.9 30.3594C198.928 33.3704 202.574 34.876 206.838 34.876ZM206.862 1.42871C211.826 1.42871 216.066 3.18652 219.582 6.70215C223.098 10.2178 224.847 14.4577 224.831 19.4219C224.831 24.3861 223.073 28.626 219.558 32.1416C216.042 35.6572 211.802 37.415 206.838 37.415C201.874 37.415 197.634 35.6572 194.118 32.1416C190.603 28.626 188.845 24.3861 188.845 19.4219C188.861 14.4577 190.627 10.2178 194.143 6.70215C197.658 3.18652 201.898 1.42871 206.862 1.42871ZM253.103 34.4365V37H228.908V1.96582H231.472V34.4365H253.103ZM260.573 37H258.01V1.96582H260.573V37ZM268.044 11.5361V37H265.48V1.20898L282.814 32.6055L300.124 1.20898V37H297.561V11.5361L282.814 37.7324L268.044 11.5361ZM310.817 29.041L306.716 37.0488H303.859L322.268 0.989258L340.725 37.0488H337.966L333.84 29.041H310.817ZM332.521 26.4775L322.268 6.60449L312.111 26.4775H332.521ZM376.027 1.96582V37.7324H376.003L346.95 7.41016V37H344.387V1.2334L373.464 31.6045V1.96582H376.027Z" fill="black"/>
</svg>
