<?xml version="1.0" encoding="utf-8"?>
<!-- Generator: Adobe Illustrator 25.0.0, SVG Export Plug-In . SVG Version: 6.00 Build 0)  -->
<svg version="1.1" id="Layer_1" xmlns="http://www.w3.org/2000/svg" xmlns:xlink="http://www.w3.org/1999/xlink" x="0px" y="0px"
	 viewBox="0 0 918.7 416.8" style="enable-background:new 0 0 918.7 416.8;" xml:space="preserve">
<style type="text/css">
	.st0{fill:#FFFFFF;}
	.st1{fill:none;stroke:#0019FF;stroke-linecap:round;stroke-linejoin:round;}
	.st2{fill:none;stroke:#0019FF;stroke-width:3;stroke-linecap:round;stroke-linejoin:round;}
</style>
<g>
	<path class="st0" d="M886.5,1.2h-2.6v42.1h2.6V1.2z"/>
	<path class="st0" d="M900.6,321.8c-6.1-76.8-7.8-148-7.8-148h8c1.2,0,2.4-0.4,3.2-1.2c0.9-0.8,1.3-1.9,1.3-3c0-1.1-0.5-2.2-1.3-3
		c-0.9-0.8-2-1.2-3.2-1.2l4.5-3.6h1.5c0.4,0,0.8-0.2,1.2-0.4c0.3-0.3,0.5-0.7,0.5-1.1c0-0.4-0.2-0.8-0.5-1.1
		c-0.3-0.3-0.7-0.4-1.2-0.4c0.2,0,0.5,0,0.7,0c0.2-0.1,0.4-0.2,0.6-0.3c0.2-0.1,0.3-0.3,0.4-0.5c0.1-0.2,0.2-0.4,0.2-0.6
		c0-0.2,0-0.4-0.2-0.6c-0.1-0.2-0.2-0.4-0.4-0.5s-0.4-0.2-0.6-0.3c-0.2-0.1-0.5-0.1-0.7,0c0.4,0,0.8-0.2,1.2-0.4
		c0.3-0.3,0.5-0.7,0.5-1.1c0-0.4-0.2-0.8-0.5-1.1c-0.3-0.3-0.7-0.4-1.2-0.4l-7.1-7.3v-4.9h-8.6v-10.3h-2V83.3l3.3-3.3l-3.3-3.3h-1.4
		V43.2h-5.2v33.6h-1.4l-3.3,3.3l3.3,3.3v47.1h-2v10.3h-8.6v4.9l-7.1,7.3c-0.4,0-0.8,0.2-1.1,0.4c-0.3,0.3-0.5,0.7-0.5,1.1
		c0,0.4,0.2,0.8,0.5,1.1c0.3,0.3,0.7,0.4,1.1,0.4c-0.2,0-0.5,0-0.7,0s-0.4,0.2-0.6,0.3c-0.2,0.1-0.3,0.3-0.4,0.5
		c-0.1,0.2-0.1,0.4-0.1,0.6c0,0.2,0.1,0.4,0.1,0.6c0.1,0.2,0.2,0.4,0.4,0.5c0.2,0.1,0.4,0.2,0.6,0.3c0.2,0.1,0.5,0.1,0.7,0
		c-0.4,0-0.8,0.2-1.1,0.4c-0.3,0.3-0.5,0.7-0.5,1.1c0,0.4,0.2,0.8,0.5,1.1c0.3,0.3,0.7,0.4,1.1,0.4h1.5l4.6,3.6
		c-1.2,0-2.4,0.4-3.2,1.2c-0.9,0.8-1.3,1.9-1.3,3c0,1.1,0.5,2.2,1.3,3c0.9,0.8,2,1.2,3.2,1.2h8c0,0-1.7,71.2-7.8,148
		c-4.6,58.7-11.2,92.9-11.2,92.9h53.3C911.8,414.7,905.3,380.4,900.6,321.8z"/>
	<path class="st1" d="M877.5,173.7h7.7"/>
	<path class="st1" d="M885.2,165.3h-15.7"/>
	<path class="st1" d="M863.4,155.9h21.8"/>
	<path class="st1" d="M885.2,152.9h-21.8"/>
	<path class="st1" d="M863.4,158.8h21.8"/>
	<path class="st1" d="M885.2,155.9h-21.8"/>
	<path class="st1" d="M864.9,161.8h20.2"/>
	<path class="st1" d="M885.2,158.8h-21.8"/>
	<path class="st1" d="M871.2,161.8l4.5,3.6"/>
	<path class="st1" d="M877.5,161.8l4.5,3.6"/>
	<path class="st1" d="M870.5,145.6h14.7"/>
	<path class="st1" d="M885.2,140.7h-6"/>
	<path class="st1" d="M881.1,130.5h4"/>
	<path class="st1" d="M879.1,135h6.1"/>
	<path class="st1" d="M881.1,83.4h4"/>
	<path class="st1" d="M877.8,80.1h7.3"/>
	<path class="st1" d="M882.6,76.8h2.6"/>
	<path class="st1" d="M885.2,80.1h-7.3"/>
	<path class="st1" d="M883.9,43.3V1.2h1.3"/>
	<path class="st1" d="M883.9,7.1h1.3"/>
	<path class="st1" d="M883.9,16h1.3"/>
	<path class="st1" d="M883.9,24.8h1.3"/>
	<path class="st1" d="M883.9,33.7h1.3"/>
	<path class="st1" d="M882.5,173.7V410h2.7"/>
	<path class="st1" d="M879.6,173.7V410h2.7"/>
	<path class="st1" d="M882.5,410h-8.6v4.7"/>
	<path class="st1" d="M882.5,405.4h2.7"/>
	<path class="st1" d="M882.5,400h2.7"/>
	<path class="st1" d="M882.5,394.7h2.7"/>
	<path class="st1" d="M882.5,389.3h2.7"/>
	<path class="st1" d="M882.5,383.9h2.7"/>
	<path class="st1" d="M882.5,378.5h2.7"/>
	<path class="st1" d="M882.5,373.2h2.7"/>
	<path class="st1" d="M882.5,367.8h2.7"/>
	<path class="st1" d="M882.5,362.4h2.7"/>
	<path class="st1" d="M882.5,357h2.7"/>
	<path class="st1" d="M882.5,351.7h2.7"/>
	<path class="st1" d="M882.5,346.3h2.7"/>
	<path class="st1" d="M882.5,340.9h2.7"/>
	<path class="st1" d="M882.5,335.5h2.7"/>
	<path class="st1" d="M882.5,330.2h2.7"/>
	<path class="st1" d="M882.5,324.8h2.7"/>
	<path class="st1" d="M882.5,319.4h2.7"/>
	<path class="st1" d="M882.5,314h2.7"/>
	<path class="st1" d="M882.5,308.7h2.7"/>
	<path class="st1" d="M882.5,303.3h2.7"/>
	<path class="st1" d="M882.5,297.9h2.7"/>
	<path class="st1" d="M882.5,292.6h2.7"/>
	<path class="st1" d="M882.5,287.2h2.7"/>
	<path class="st1" d="M882.5,281.8h2.7"/>
	<path class="st1" d="M882.5,276.4h2.7"/>
	<path class="st1" d="M882.5,271.1h2.7"/>
	<path class="st1" d="M882.5,265.7h2.7"/>
	<path class="st1" d="M882.5,260.3h2.7"/>
	<path class="st1" d="M882.5,254.9h2.7"/>
	<path class="st1" d="M882.5,249.6h2.7"/>
	<path class="st1" d="M882.5,244.2h2.7"/>
	<path class="st1" d="M882.5,238.8h2.7"/>
	<path class="st1" d="M882.5,233.4h2.7"/>
	<path class="st1" d="M882.5,228.1h2.7"/>
	<path class="st1" d="M882.5,222.7h2.7"/>
	<path class="st1" d="M882.5,217.3h2.7"/>
	<path class="st1" d="M882.5,211.9h2.7"/>
	<path class="st1" d="M882.5,206.6h2.7"/>
	<path class="st1" d="M882.5,201.2h2.7"/>
	<path class="st1" d="M882.5,195.8h2.7"/>
	<path class="st1" d="M882.5,190.5h2.7"/>
	<path class="st1" d="M882.5,185.1h2.7"/>
	<path class="st1" d="M882.5,179.7h2.7"/>
	<path class="st1" d="M875.8,403.8h-12.2v2.6h12.2V403.8z"/>
	<path class="st1" d="M892.8,173.7h-7.7"/>
	<path class="st1" d="M885.2,165.3h15.7"/>
	<path class="st1" d="M906.9,155.9h-21.8"/>
	<path class="st1" d="M885.2,152.9h21.8"/>
	<path class="st1" d="M906.9,158.8h-21.8"/>
	<path class="st1" d="M885.2,155.9h21.8"/>
	<path class="st1" d="M905.4,161.8h-20.2"/>
	<path class="st1" d="M885.2,158.8h21.8"/>
	<path class="st1" d="M899.1,161.8l-4.5,3.6"/>
	<path class="st1" d="M892.8,161.8l-4.5,3.6"/>
	<path class="st1" d="M899.8,145.6h-14.7"/>
	<path class="st1" d="M885.2,140.7h6"/>
	<path class="st1" d="M889.2,130.5h-4"/>
	<path class="st1" d="M891.2,135h-6.1"/>
	<path class="st1" d="M889.2,83.4h-4"/>
	<path class="st1" d="M892.5,80.1h-7.3"/>
	<path class="st1" d="M887.8,76.8h-2.6"/>
	<path class="st1" d="M885.2,80.1h7.3"/>
	<path class="st1" d="M886.5,43.3V1.2h-1.3"/>
	<path class="st1" d="M886.5,7.1h-1.3"/>
	<path class="st1" d="M886.5,16h-1.3"/>
	<path class="st1" d="M886.5,24.8h-1.3"/>
	<path class="st1" d="M886.5,33.7h-1.3"/>
	<path class="st1" d="M887.9,173.7V410h-2.7"/>
	<path class="st1" d="M890.7,173.7V410H888"/>
	<path class="st1" d="M887.9,410h8.6v4.7"/>
	<path class="st1" d="M887.9,405.4h-2.7"/>
	<path class="st1" d="M887.9,400h-2.7"/>
	<path class="st1" d="M887.9,394.7h-2.7"/>
	<path class="st1" d="M887.9,389.3h-2.7"/>
	<path class="st1" d="M887.9,383.9h-2.7"/>
	<path class="st1" d="M887.9,378.5h-2.7"/>
	<path class="st1" d="M887.9,373.2h-2.7"/>
	<path class="st1" d="M887.9,367.8h-2.7"/>
	<path class="st1" d="M887.9,362.4h-2.7"/>
	<path class="st1" d="M887.9,357h-2.7"/>
	<path class="st1" d="M887.9,351.7h-2.7"/>
	<path class="st1" d="M887.9,346.3h-2.7"/>
	<path class="st1" d="M887.9,340.9h-2.7"/>
	<path class="st1" d="M887.9,335.5h-2.7"/>
	<path class="st1" d="M887.9,330.2h-2.7"/>
	<path class="st1" d="M887.9,324.8h-2.7"/>
	<path class="st1" d="M887.9,319.4h-2.7"/>
	<path class="st1" d="M887.9,314h-2.7"/>
	<path class="st1" d="M887.9,308.7h-2.7"/>
	<path class="st1" d="M887.9,303.3h-2.7"/>
	<path class="st1" d="M887.9,297.9h-2.7"/>
	<path class="st1" d="M887.9,292.6h-2.7"/>
	<path class="st1" d="M887.9,287.2h-2.7"/>
	<path class="st1" d="M887.9,281.8h-2.7"/>
	<path class="st1" d="M887.9,276.4h-2.7"/>
	<path class="st1" d="M887.9,271.1h-2.7"/>
	<path class="st1" d="M887.9,265.7h-2.7"/>
	<path class="st1" d="M887.9,260.3h-2.7"/>
	<path class="st1" d="M887.9,254.9h-2.7"/>
	<path class="st1" d="M887.9,249.6h-2.7"/>
	<path class="st1" d="M887.9,244.2h-2.7"/>
	<path class="st1" d="M887.9,238.8h-2.7"/>
	<path class="st1" d="M887.9,233.4h-2.7"/>
	<path class="st1" d="M887.9,228.1h-2.7"/>
	<path class="st1" d="M887.9,222.7h-2.7"/>
	<path class="st1" d="M887.9,217.3h-2.7"/>
	<path class="st1" d="M887.9,211.9h-2.7"/>
	<path class="st1" d="M887.9,206.6h-2.7"/>
	<path class="st1" d="M887.9,201.2h-2.7"/>
	<path class="st1" d="M887.9,195.8h-2.7"/>
	<path class="st1" d="M887.9,190.5h-2.7"/>
	<path class="st1" d="M887.9,185.1h-2.7"/>
	<path class="st1" d="M887.9,179.7h-2.7"/>
	<path class="st1" d="M894.6,406.4h12.2v-2.6h-12.2V406.4z"/>
	<path class="st2" d="M900.6,321.8c-6.1-76.8-7.8-148-7.8-148h8c1.2,0,2.4-0.4,3.2-1.2c0.9-0.8,1.3-1.9,1.3-3c0-1.1-0.5-2.2-1.3-3
		c-0.9-0.8-2-1.2-3.2-1.2l4.5-3.6h1.5c0.4,0,0.8-0.2,1.2-0.4c0.3-0.3,0.5-0.7,0.5-1.1c0-0.4-0.2-0.8-0.5-1.1
		c-0.3-0.3-0.7-0.4-1.2-0.4c0.2,0,0.5,0,0.7,0c0.2-0.1,0.4-0.2,0.6-0.3c0.2-0.1,0.3-0.3,0.4-0.5c0.1-0.2,0.2-0.4,0.2-0.6
		c0-0.2,0-0.4-0.2-0.6c-0.1-0.2-0.2-0.4-0.4-0.5s-0.4-0.2-0.6-0.3c-0.2-0.1-0.5-0.1-0.7,0c0.4,0,0.8-0.2,1.2-0.4
		c0.3-0.3,0.5-0.7,0.5-1.1c0-0.4-0.2-0.8-0.5-1.1c-0.3-0.3-0.7-0.4-1.2-0.4l-7.1-7.3v-4.9h-8.6v-10.3h-2V83.3l3.3-3.3l-3.3-3.3h-1.4
		V43.2h-5.2v33.6h-1.4l-3.3,3.3l3.3,3.3v47.1h-2v10.3h-8.6v4.9l-7.1,7.3c-0.4,0-0.8,0.2-1.1,0.4c-0.3,0.3-0.5,0.7-0.5,1.1
		c0,0.4,0.2,0.8,0.5,1.1c0.3,0.3,0.7,0.4,1.1,0.4c-0.2,0-0.5,0-0.7,0s-0.4,0.2-0.6,0.3c-0.2,0.1-0.3,0.3-0.4,0.5
		c-0.1,0.2-0.1,0.4-0.1,0.6c0,0.2,0.1,0.4,0.1,0.6c0.1,0.2,0.2,0.4,0.4,0.5c0.2,0.1,0.4,0.2,0.6,0.3c0.2,0.1,0.5,0.1,0.7,0
		c-0.4,0-0.8,0.2-1.1,0.4c-0.3,0.3-0.5,0.7-0.5,1.1c0,0.4,0.2,0.8,0.5,1.1c0.3,0.3,0.7,0.4,1.1,0.4h1.5l4.6,3.6
		c-1.2,0-2.4,0.4-3.2,1.2c-0.9,0.8-1.3,1.9-1.3,3c0,1.1,0.5,2.2,1.3,3c0.9,0.8,2,1.2,3.2,1.2h8c0,0-1.7,71.2-7.8,148
		c-4.6,58.7-11.2,92.9-11.2,92.9h53.3C911.8,414.7,905.3,380.4,900.6,321.8z"/>
	<path class="st0" d="M447.1,159.5h-2v32.7h2V159.5z"/>
	<path class="st0" d="M467.2,151.2h-2v40.9h2V151.2z"/>
	<path class="st0" d="M485.1,401.7V197.3H471v-5.2h-34.6v5.2h-16.5v209.6H403v3.7h3.5v4h121.7v-13H485.1z"/>
	<path class="st1" d="M436.4,197.3H450v209.6"/>
	<path class="st1" d="M450,197.3h5.1"/>
	<path class="st1" d="M446.4,396.2v1.7"/>
	<path class="st1" d="M443.8,396.2v1.7"/>
	<path class="st1" d="M439.8,396.2v1.7"/>
	<path class="st1" d="M437.2,396.2v1.7"/>
	<path class="st1" d="M433.2,396.2v1.7"/>
	<path class="st1" d="M430.7,396.2v1.7"/>
	<path class="st1" d="M426.7,396.2v1.7"/>
	<path class="st1" d="M424.1,396.2v1.7"/>
	<path class="st1" d="M446.4,388.6v1.7"/>
	<path class="st1" d="M443.8,388.6v1.7"/>
	<path class="st1" d="M439.8,388.6v1.7"/>
	<path class="st1" d="M437.2,388.6v1.7"/>
	<path class="st1" d="M433.2,388.6v1.7"/>
	<path class="st1" d="M430.7,388.6v1.7"/>
	<path class="st1" d="M426.7,388.6v1.7"/>
	<path class="st1" d="M424.1,388.6v1.7"/>
	<path class="st1" d="M446.4,381v1.7"/>
	<path class="st1" d="M443.8,381v1.7"/>
	<path class="st1" d="M439.8,381v1.7"/>
	<path class="st1" d="M437.2,381v1.7"/>
	<path class="st1" d="M433.2,381v1.7"/>
	<path class="st1" d="M430.7,381v1.7"/>
	<path class="st1" d="M426.7,381v1.7"/>
	<path class="st1" d="M424.1,381v1.7"/>
	<path class="st1" d="M446.4,373.4v1.8"/>
	<path class="st1" d="M443.8,373.4v1.7"/>
	<path class="st1" d="M439.8,373.4v1.7"/>
	<path class="st1" d="M437.2,373.4v1.8"/>
	<path class="st1" d="M433.2,373.4v1.8"/>
	<path class="st1" d="M430.7,373.4v1.7"/>
	<path class="st1" d="M426.7,373.4v1.7"/>
	<path class="st1" d="M424.1,373.4v1.8"/>
	<path class="st1" d="M446.4,365.8v1.7"/>
	<path class="st1" d="M443.8,365.8v1.7"/>
	<path class="st1" d="M439.8,365.8v1.7"/>
	<path class="st1" d="M437.2,365.8v1.7"/>
	<path class="st1" d="M433.2,365.8v1.7"/>
	<path class="st1" d="M430.7,365.8v1.7"/>
	<path class="st1" d="M426.7,365.8v1.7"/>
	<path class="st1" d="M424.1,365.8v1.7"/>
	<path class="st1" d="M446.4,358.2v1.7"/>
	<path class="st1" d="M443.8,358.2v1.7"/>
	<path class="st1" d="M439.8,358.2v1.7"/>
	<path class="st1" d="M437.2,358.2v1.7"/>
	<path class="st1" d="M433.2,358.2v1.7"/>
	<path class="st1" d="M430.7,358.2v1.7"/>
	<path class="st1" d="M426.7,358.2v1.7"/>
	<path class="st1" d="M424.1,358.2v1.7"/>
	<path class="st1" d="M446.4,350.6v1.8"/>
	<path class="st1" d="M443.8,350.6v1.8"/>
	<path class="st1" d="M439.8,350.6v1.8"/>
	<path class="st1" d="M437.2,350.6v1.8"/>
	<path class="st1" d="M433.2,350.6v1.8"/>
	<path class="st1" d="M430.7,350.6v1.8"/>
	<path class="st1" d="M426.7,350.6v1.8"/>
	<path class="st1" d="M424.1,350.6v1.8"/>
	<path class="st1" d="M446.4,343v1.7"/>
	<path class="st1" d="M443.8,343v1.7"/>
	<path class="st1" d="M439.8,343v1.7"/>
	<path class="st1" d="M437.2,343v1.7"/>
	<path class="st1" d="M433.2,343v1.7"/>
	<path class="st1" d="M430.7,343v1.7"/>
	<path class="st1" d="M426.7,343v1.7"/>
	<path class="st1" d="M424.1,343v1.7"/>
	<path class="st1" d="M446.4,335.4v1.7"/>
	<path class="st1" d="M443.8,335.4v1.7"/>
	<path class="st1" d="M439.8,335.4v1.7"/>
	<path class="st1" d="M437.2,335.4v1.7"/>
	<path class="st1" d="M433.2,335.4v1.7"/>
	<path class="st1" d="M430.7,335.4v1.7"/>
	<path class="st1" d="M426.7,335.4v1.7"/>
	<path class="st1" d="M424.1,335.4v1.7"/>
	<path class="st1" d="M446.4,327.8v1.7"/>
	<path class="st1" d="M443.8,327.8v1.8"/>
	<path class="st1" d="M439.8,327.8v1.8"/>
	<path class="st1" d="M437.2,327.8v1.7"/>
	<path class="st1" d="M433.2,327.8v1.7"/>
	<path class="st1" d="M430.7,327.8v1.8"/>
	<path class="st1" d="M426.7,327.8v1.8"/>
	<path class="st1" d="M424.1,327.8v1.7"/>
	<path class="st1" d="M446.4,320.2v1.7"/>
	<path class="st1" d="M443.8,320.2v1.7"/>
	<path class="st1" d="M439.8,320.2v1.7"/>
	<path class="st1" d="M437.2,320.2v1.7"/>
	<path class="st1" d="M433.2,320.2v1.7"/>
	<path class="st1" d="M430.7,320.2v1.7"/>
	<path class="st1" d="M426.7,320.2v1.7"/>
	<path class="st1" d="M424.1,320.2v1.7"/>
	<path class="st1" d="M446.4,312.6v1.7"/>
	<path class="st1" d="M443.8,312.6v1.7"/>
	<path class="st1" d="M439.8,312.6v1.7"/>
	<path class="st1" d="M437.2,312.6v1.7"/>
	<path class="st1" d="M433.2,312.6v1.7"/>
	<path class="st1" d="M430.7,312.6v1.7"/>
	<path class="st1" d="M426.7,312.6v1.7"/>
	<path class="st1" d="M424.1,312.6v1.7"/>
	<path class="st1" d="M446.4,305v1.8"/>
	<path class="st1" d="M443.8,305v1.7"/>
	<path class="st1" d="M439.8,305v1.7"/>
	<path class="st1" d="M437.2,305v1.8"/>
	<path class="st1" d="M433.2,305v1.8"/>
	<path class="st1" d="M430.7,305v1.7"/>
	<path class="st1" d="M426.7,305v1.7"/>
	<path class="st1" d="M424.1,305v1.8"/>
	<path class="st1" d="M446.4,297.4v1.7"/>
	<path class="st1" d="M443.8,297.4v1.7"/>
	<path class="st1" d="M439.8,297.4v1.7"/>
	<path class="st1" d="M437.2,297.4v1.7"/>
	<path class="st1" d="M433.2,297.4v1.7"/>
	<path class="st1" d="M430.7,297.4v1.7"/>
	<path class="st1" d="M426.7,297.4v1.7"/>
	<path class="st1" d="M424.1,297.4v1.7"/>
	<path class="st1" d="M446.4,289.8v1.7"/>
	<path class="st1" d="M443.8,289.8v1.7"/>
	<path class="st1" d="M439.8,289.8v1.7"/>
	<path class="st1" d="M437.2,289.8v1.7"/>
	<path class="st1" d="M433.2,289.8v1.7"/>
	<path class="st1" d="M430.7,289.8v1.7"/>
	<path class="st1" d="M426.7,289.8v1.7"/>
	<path class="st1" d="M424.1,289.8v1.7"/>
	<path class="st1" d="M446.4,282.2v1.8"/>
	<path class="st1" d="M443.8,282.2v1.7"/>
	<path class="st1" d="M439.8,282.2v1.7"/>
	<path class="st1" d="M437.2,282.2v1.8"/>
	<path class="st1" d="M433.2,282.2v1.8"/>
	<path class="st1" d="M430.7,282.2v1.7"/>
	<path class="st1" d="M426.7,282.2v1.7"/>
	<path class="st1" d="M424.1,282.2v1.8"/>
	<path class="st1" d="M446.4,274.6v1.7"/>
	<path class="st1" d="M443.8,274.6v1.7"/>
	<path class="st1" d="M439.8,274.6v1.7"/>
	<path class="st1" d="M437.2,274.6v1.7"/>
	<path class="st1" d="M433.2,274.6v1.7"/>
	<path class="st1" d="M430.7,274.6v1.7"/>
	<path class="st1" d="M426.7,274.6v1.7"/>
	<path class="st1" d="M424.1,274.6v1.7"/>
	<path class="st1" d="M446.4,267v1.7"/>
	<path class="st1" d="M443.8,267v1.7"/>
	<path class="st1" d="M439.8,267v1.7"/>
	<path class="st1" d="M437.2,267v1.7"/>
	<path class="st1" d="M433.2,267v1.7"/>
	<path class="st1" d="M430.7,267v1.7"/>
	<path class="st1" d="M426.7,267v1.7"/>
	<path class="st1" d="M424.1,267v1.7"/>
	<path class="st1" d="M446.4,259.4v1.7"/>
	<path class="st1" d="M443.8,259.4v1.8"/>
	<path class="st1" d="M439.8,259.4v1.8"/>
	<path class="st1" d="M437.2,259.4v1.7"/>
	<path class="st1" d="M433.2,259.4v1.7"/>
	<path class="st1" d="M430.7,259.4v1.8"/>
	<path class="st1" d="M426.7,259.4v1.8"/>
	<path class="st1" d="M424.1,259.4v1.7"/>
	<path class="st1" d="M446.4,251.8v1.7"/>
	<path class="st1" d="M443.8,251.8v1.7"/>
	<path class="st1" d="M439.8,251.8v1.7"/>
	<path class="st1" d="M437.2,251.8v1.7"/>
	<path class="st1" d="M433.2,251.8v1.7"/>
	<path class="st1" d="M430.7,251.8v1.7"/>
	<path class="st1" d="M426.7,251.8v1.7"/>
	<path class="st1" d="M424.1,251.8v1.7"/>
	<path class="st1" d="M446.4,244.2v1.7"/>
	<path class="st1" d="M443.8,244.2v1.7"/>
	<path class="st1" d="M439.8,244.2v1.7"/>
	<path class="st1" d="M437.2,244.2v1.7"/>
	<path class="st1" d="M433.2,244.2v1.7"/>
	<path class="st1" d="M430.7,244.2v1.7"/>
	<path class="st1" d="M426.7,244.2v1.7"/>
	<path class="st1" d="M424.1,244.2v1.7"/>
	<path class="st1" d="M446.4,236.6v1.8"/>
	<path class="st1" d="M443.8,236.6v1.8"/>
	<path class="st1" d="M439.8,236.6v1.8"/>
	<path class="st1" d="M437.2,236.6v1.8"/>
	<path class="st1" d="M433.2,236.6v1.8"/>
	<path class="st1" d="M430.7,236.6v1.8"/>
	<path class="st1" d="M426.7,236.6v1.8"/>
	<path class="st1" d="M424.1,236.6v1.8"/>
	<path class="st1" d="M446.4,229v1.7"/>
	<path class="st1" d="M443.8,229v1.7"/>
	<path class="st1" d="M439.8,229v1.7"/>
	<path class="st1" d="M437.2,229v1.7"/>
	<path class="st1" d="M433.2,229v1.7"/>
	<path class="st1" d="M430.7,229v1.7"/>
	<path class="st1" d="M426.7,229v1.7"/>
	<path class="st1" d="M424.1,229v1.7"/>
	<path class="st1" d="M446.4,221.4v1.7"/>
	<path class="st1" d="M443.8,221.4v1.7"/>
	<path class="st1" d="M439.8,221.4v1.7"/>
	<path class="st1" d="M437.2,221.4v1.7"/>
	<path class="st1" d="M433.2,221.4v1.7"/>
	<path class="st1" d="M430.7,221.4v1.7"/>
	<path class="st1" d="M426.7,221.4v1.7"/>
	<path class="st1" d="M424.1,221.4v1.7"/>
	<path class="st1" d="M446.4,213.8v1.8"/>
	<path class="st1" d="M443.8,213.8v1.7"/>
	<path class="st1" d="M439.8,213.8v1.7"/>
	<path class="st1" d="M437.2,213.8v1.8"/>
	<path class="st1" d="M433.2,213.8v1.8"/>
	<path class="st1" d="M430.7,213.8v1.7"/>
	<path class="st1" d="M426.7,213.8v1.7"/>
	<path class="st1" d="M424.1,213.8v1.8"/>
	<path class="st1" d="M446.4,206.2v1.7"/>
	<path class="st1" d="M443.8,206.2v1.7"/>
	<path class="st1" d="M439.8,206.2v1.7"/>
	<path class="st1" d="M437.2,206.2v1.7"/>
	<path class="st1" d="M433.2,206.2v1.7"/>
	<path class="st1" d="M430.7,206.2v1.7"/>
	<path class="st1" d="M426.7,206.2v1.7"/>
	<path class="st1" d="M424.1,206.2v1.7"/>
	<path class="st1" d="M419.9,203.7h30"/>
	<path class="st1" d="M471,197.3h-16v209.6"/>
	<path class="st1" d="M458.7,396.2v1.7"/>
	<path class="st1" d="M461.2,396.2v1.7"/>
	<path class="st1" d="M465.2,396.2v1.7"/>
	<path class="st1" d="M467.8,396.2v1.7"/>
	<path class="st1" d="M471.8,396.2v1.7"/>
	<path class="st1" d="M474.4,396.2v1.7"/>
	<path class="st1" d="M478.4,396.2v1.7"/>
	<path class="st1" d="M480.9,396.2v1.7"/>
	<path class="st1" d="M458.7,388.6v1.7"/>
	<path class="st1" d="M461.2,388.6v1.7"/>
	<path class="st1" d="M465.2,388.6v1.7"/>
	<path class="st1" d="M467.8,388.6v1.7"/>
	<path class="st1" d="M471.8,388.6v1.7"/>
	<path class="st1" d="M474.4,388.6v1.7"/>
	<path class="st1" d="M478.4,388.6v1.7"/>
	<path class="st1" d="M480.9,388.6v1.7"/>
	<path class="st1" d="M458.7,381v1.7"/>
	<path class="st1" d="M461.2,381v1.7"/>
	<path class="st1" d="M465.2,381v1.7"/>
	<path class="st1" d="M467.8,381v1.7"/>
	<path class="st1" d="M471.8,381v1.7"/>
	<path class="st1" d="M474.4,381v1.7"/>
	<path class="st1" d="M478.4,381v1.7"/>
	<path class="st1" d="M480.9,381v1.7"/>
	<path class="st1" d="M458.7,373.4v1.7"/>
	<path class="st1" d="M461.2,373.4v1.8"/>
	<path class="st1" d="M465.2,373.4v1.8"/>
	<path class="st1" d="M467.8,373.4v1.7"/>
	<path class="st1" d="M471.8,373.4v1.7"/>
	<path class="st1" d="M474.4,373.4v1.8"/>
	<path class="st1" d="M478.4,373.4v1.7"/>
	<path class="st1" d="M480.9,373.4v1.8"/>
	<path class="st1" d="M458.7,365.8v1.7"/>
	<path class="st1" d="M461.2,365.8v1.7"/>
	<path class="st1" d="M465.2,365.8v1.7"/>
	<path class="st1" d="M467.8,365.8v1.7"/>
	<path class="st1" d="M471.8,365.8v1.7"/>
	<path class="st1" d="M474.4,365.8v1.7"/>
	<path class="st1" d="M478.4,365.8v1.7"/>
	<path class="st1" d="M480.9,365.8v1.7"/>
	<path class="st1" d="M458.7,358.2v1.7"/>
	<path class="st1" d="M461.2,358.2v1.7"/>
	<path class="st1" d="M465.2,358.2v1.7"/>
	<path class="st1" d="M467.8,358.2v1.7"/>
	<path class="st1" d="M471.8,358.2v1.7"/>
	<path class="st1" d="M474.4,358.2v1.7"/>
	<path class="st1" d="M478.4,358.2v1.7"/>
	<path class="st1" d="M480.9,358.2v1.7"/>
	<path class="st1" d="M458.7,350.6v1.8"/>
	<path class="st1" d="M461.2,350.6v1.8"/>
	<path class="st1" d="M465.2,350.6v1.8"/>
	<path class="st1" d="M467.8,350.6v1.8"/>
	<path class="st1" d="M471.8,350.6v1.8"/>
	<path class="st1" d="M474.4,350.6v1.8"/>
	<path class="st1" d="M478.4,350.6v1.8"/>
	<path class="st1" d="M480.9,350.6v1.8"/>
	<path class="st1" d="M458.7,343v1.7"/>
	<path class="st1" d="M461.2,343v1.7"/>
	<path class="st1" d="M465.2,343v1.7"/>
	<path class="st1" d="M467.8,343v1.7"/>
	<path class="st1" d="M471.8,343v1.7"/>
	<path class="st1" d="M474.4,343v1.7"/>
	<path class="st1" d="M478.4,343v1.7"/>
	<path class="st1" d="M480.9,343v1.7"/>
	<path class="st1" d="M458.7,335.4v1.7"/>
	<path class="st1" d="M461.2,335.4v1.7"/>
	<path class="st1" d="M465.2,335.4v1.7"/>
	<path class="st1" d="M467.8,335.4v1.7"/>
	<path class="st1" d="M471.8,335.4v1.7"/>
	<path class="st1" d="M474.4,335.4v1.7"/>
	<path class="st1" d="M478.4,335.4v1.7"/>
	<path class="st1" d="M480.9,335.4v1.7"/>
	<path class="st1" d="M458.7,327.8v1.8"/>
	<path class="st1" d="M461.2,327.8v1.7"/>
	<path class="st1" d="M465.2,327.8v1.7"/>
	<path class="st1" d="M467.8,327.8v1.8"/>
	<path class="st1" d="M471.8,327.8v1.8"/>
	<path class="st1" d="M474.4,327.8v1.7"/>
	<path class="st1" d="M478.4,327.8v1.8"/>
	<path class="st1" d="M480.9,327.8v1.7"/>
	<path class="st1" d="M458.7,320.2v1.7"/>
	<path class="st1" d="M461.2,320.2v1.7"/>
	<path class="st1" d="M465.2,320.2v1.7"/>
	<path class="st1" d="M467.8,320.2v1.7"/>
	<path class="st1" d="M471.8,320.2v1.7"/>
	<path class="st1" d="M474.4,320.2v1.7"/>
	<path class="st1" d="M478.4,320.2v1.7"/>
	<path class="st1" d="M480.9,320.2v1.7"/>
	<path class="st1" d="M458.7,312.6v1.7"/>
	<path class="st1" d="M461.2,312.6v1.7"/>
	<path class="st1" d="M465.2,312.6v1.7"/>
	<path class="st1" d="M467.8,312.6v1.7"/>
	<path class="st1" d="M471.8,312.6v1.7"/>
	<path class="st1" d="M474.4,312.6v1.7"/>
	<path class="st1" d="M478.4,312.6v1.7"/>
	<path class="st1" d="M480.9,312.6v1.7"/>
	<path class="st1" d="M458.7,305v1.7"/>
	<path class="st1" d="M461.2,305v1.8"/>
	<path class="st1" d="M465.2,305v1.8"/>
	<path class="st1" d="M467.8,305v1.7"/>
	<path class="st1" d="M471.8,305v1.7"/>
	<path class="st1" d="M474.4,305v1.8"/>
	<path class="st1" d="M478.4,305v1.7"/>
	<path class="st1" d="M480.9,305v1.8"/>
	<path class="st1" d="M458.7,297.4v1.7"/>
	<path class="st1" d="M461.2,297.4v1.7"/>
	<path class="st1" d="M465.2,297.4v1.7"/>
	<path class="st1" d="M467.8,297.4v1.7"/>
	<path class="st1" d="M471.8,297.4v1.7"/>
	<path class="st1" d="M474.4,297.4v1.7"/>
	<path class="st1" d="M478.4,297.4v1.7"/>
	<path class="st1" d="M480.9,297.4v1.7"/>
	<path class="st1" d="M458.7,289.8v1.7"/>
	<path class="st1" d="M461.2,289.8v1.7"/>
	<path class="st1" d="M465.2,289.8v1.7"/>
	<path class="st1" d="M467.8,289.8v1.7"/>
	<path class="st1" d="M471.8,289.8v1.7"/>
	<path class="st1" d="M474.4,289.8v1.7"/>
	<path class="st1" d="M478.4,289.8v1.7"/>
	<path class="st1" d="M480.9,289.8v1.7"/>
	<path class="st1" d="M458.7,282.2v1.7"/>
	<path class="st1" d="M461.2,282.2v1.8"/>
	<path class="st1" d="M465.2,282.2v1.8"/>
	<path class="st1" d="M467.8,282.2v1.7"/>
	<path class="st1" d="M471.8,282.2v1.7"/>
	<path class="st1" d="M474.4,282.2v1.8"/>
	<path class="st1" d="M478.4,282.2v1.7"/>
	<path class="st1" d="M480.9,282.2v1.8"/>
	<path class="st1" d="M458.7,274.6v1.7"/>
	<path class="st1" d="M461.2,274.6v1.7"/>
	<path class="st1" d="M465.2,274.6v1.7"/>
	<path class="st1" d="M467.8,274.6v1.7"/>
	<path class="st1" d="M471.8,274.6v1.7"/>
	<path class="st1" d="M474.4,274.6v1.7"/>
	<path class="st1" d="M478.4,274.6v1.7"/>
	<path class="st1" d="M480.9,274.6v1.7"/>
	<path class="st1" d="M458.7,267v1.7"/>
	<path class="st1" d="M461.2,267v1.7"/>
	<path class="st1" d="M465.2,267v1.7"/>
	<path class="st1" d="M467.8,267v1.7"/>
	<path class="st1" d="M471.8,267v1.7"/>
	<path class="st1" d="M474.4,267v1.7"/>
	<path class="st1" d="M478.4,267v1.7"/>
	<path class="st1" d="M480.9,267v1.7"/>
	<path class="st1" d="M458.7,259.4v1.8"/>
	<path class="st1" d="M461.2,259.4v1.7"/>
	<path class="st1" d="M465.2,259.4v1.7"/>
	<path class="st1" d="M467.8,259.4v1.8"/>
	<path class="st1" d="M471.8,259.4v1.8"/>
	<path class="st1" d="M474.4,259.4v1.7"/>
	<path class="st1" d="M478.4,259.4v1.8"/>
	<path class="st1" d="M480.9,259.4v1.7"/>
	<path class="st1" d="M458.7,251.8v1.7"/>
	<path class="st1" d="M461.2,251.8v1.7"/>
	<path class="st1" d="M465.2,251.8v1.7"/>
	<path class="st1" d="M467.8,251.8v1.7"/>
	<path class="st1" d="M471.8,251.8v1.7"/>
	<path class="st1" d="M474.4,251.8v1.7"/>
	<path class="st1" d="M478.4,251.8v1.7"/>
	<path class="st1" d="M480.9,251.8v1.7"/>
	<path class="st1" d="M458.7,244.2v1.7"/>
	<path class="st1" d="M461.2,244.2v1.7"/>
	<path class="st1" d="M465.2,244.2v1.7"/>
	<path class="st1" d="M467.8,244.2v1.7"/>
	<path class="st1" d="M471.8,244.2v1.7"/>
	<path class="st1" d="M474.4,244.2v1.7"/>
	<path class="st1" d="M478.4,244.2v1.7"/>
	<path class="st1" d="M480.9,244.2v1.7"/>
	<path class="st1" d="M458.7,236.6v1.8"/>
	<path class="st1" d="M461.2,236.6v1.8"/>
	<path class="st1" d="M465.2,236.6v1.8"/>
	<path class="st1" d="M467.8,236.6v1.8"/>
	<path class="st1" d="M471.8,236.6v1.8"/>
	<path class="st1" d="M474.4,236.6v1.8"/>
	<path class="st1" d="M478.4,236.6v1.8"/>
	<path class="st1" d="M480.9,236.6v1.8"/>
	<path class="st1" d="M458.7,229v1.7"/>
	<path class="st1" d="M461.2,229v1.7"/>
	<path class="st1" d="M465.2,229v1.7"/>
	<path class="st1" d="M467.8,229v1.7"/>
	<path class="st1" d="M471.8,229v1.7"/>
	<path class="st1" d="M474.4,229v1.7"/>
	<path class="st1" d="M478.4,229v1.7"/>
	<path class="st1" d="M480.9,229v1.7"/>
	<path class="st1" d="M458.7,221.4v1.7"/>
	<path class="st1" d="M461.2,221.4v1.7"/>
	<path class="st1" d="M465.2,221.4v1.7"/>
	<path class="st1" d="M467.8,221.4v1.7"/>
	<path class="st1" d="M471.8,221.4v1.7"/>
	<path class="st1" d="M474.4,221.4v1.7"/>
	<path class="st1" d="M478.4,221.4v1.7"/>
	<path class="st1" d="M480.9,221.4v1.7"/>
	<path class="st1" d="M458.7,213.8v1.7"/>
	<path class="st1" d="M461.2,213.8v1.8"/>
	<path class="st1" d="M465.2,213.8v1.8"/>
	<path class="st1" d="M467.8,213.8v1.7"/>
	<path class="st1" d="M471.8,213.8v1.7"/>
	<path class="st1" d="M474.4,213.8v1.8"/>
	<path class="st1" d="M478.4,213.8v1.7"/>
	<path class="st1" d="M480.9,213.8v1.8"/>
	<path class="st1" d="M458.7,206.2v1.7"/>
	<path class="st1" d="M461.2,206.2v1.7"/>
	<path class="st1" d="M465.2,206.2v1.7"/>
	<path class="st1" d="M467.8,206.2v1.7"/>
	<path class="st1" d="M471.8,206.2v1.7"/>
	<path class="st1" d="M474.4,206.2v1.7"/>
	<path class="st1" d="M478.4,206.2v1.7"/>
	<path class="st1" d="M480.9,206.2v1.7"/>
	<path class="st1" d="M485.1,203.7h-30"/>
	<path class="st1" d="M450,406.9l5.1-3.1"/>
	<path class="st1" d="M450,402.7l5.1-3.1"/>
	<path class="st1" d="M450,398.5l5.1-3.1"/>
	<path class="st1" d="M450,394.2l5.1-3.1"/>
	<path class="st1" d="M450,390l5.1-3.1"/>
	<path class="st1" d="M450,385.8l5.1-3.1"/>
	<path class="st1" d="M450,381.5l5.1-3.1"/>
	<path class="st1" d="M450,377.3l5.1-3.1"/>
	<path class="st1" d="M450,373.1l5.1-3.1"/>
	<path class="st1" d="M450,368.8l5.1-3.1"/>
	<path class="st1" d="M450,364.6l5.1-3.1"/>
	<path class="st1" d="M450,360.4l5.1-3.1"/>
	<path class="st1" d="M450,356.1l5.1-3.1"/>
	<path class="st1" d="M450,351.9l5.1-3.1"/>
	<path class="st1" d="M450,347.7l5.1-3.1"/>
	<path class="st1" d="M450,343.4l5.1-3.1"/>
	<path class="st1" d="M450,339.2l5.1-3.1"/>
	<path class="st1" d="M450,335l5.1-3.1"/>
	<path class="st1" d="M450,330.7l5.1-3.1"/>
	<path class="st1" d="M450,326.5l5.1-3.1"/>
	<path class="st1" d="M450,322.3l5.1-3.1"/>
	<path class="st1" d="M450,318l5.1-3.1"/>
	<path class="st1" d="M450,313.8l5.1-3.1"/>
	<path class="st1" d="M450,309.6l5.1-3.1"/>
	<path class="st1" d="M450,305.3l5.1-3.1"/>
	<path class="st1" d="M450,301.1l5.1-3.1"/>
	<path class="st1" d="M450,296.9l5.1-3.1"/>
	<path class="st1" d="M450,292.6l5.1-3.1"/>
	<path class="st1" d="M450,288.4l5.1-3.1"/>
	<path class="st1" d="M450,284.2l5.1-3.1"/>
	<path class="st1" d="M450,279.9l5.1-3.1"/>
	<path class="st1" d="M450,275.7l5.1-3.1"/>
	<path class="st1" d="M450,271.5l5.1-3.1"/>
	<path class="st1" d="M450,267.2l5.1-3.1"/>
	<path class="st1" d="M450,263l5.1-3.1"/>
	<path class="st1" d="M450,258.8l5.1-3.1"/>
	<path class="st1" d="M450,254.5l5.1-3.1"/>
	<path class="st1" d="M450,250.3l5.1-3.1"/>
	<path class="st1" d="M450,246.1l5.1-3.1"/>
	<path class="st1" d="M450,241.8l5.1-3.1"/>
	<path class="st1" d="M450,237.6l5.1-3.1"/>
	<path class="st1" d="M450,233.4l5.1-3.1"/>
	<path class="st1" d="M450,229.1l5.1-3.1"/>
	<path class="st1" d="M450,224.9l5.1-3.1"/>
	<path class="st1" d="M450,220.7l5.1-3.1"/>
	<path class="st1" d="M450,216.4l5.1-3.1"/>
	<path class="st1" d="M450,212.2l5.1-3.1"/>
	<path class="st1" d="M450,208l5.1-3.1"/>
	<path class="st1" d="M450,203.7l5.1-3.1"/>
	<path class="st1" d="M450,199.5l3.6-2.2"/>
	<path class="st1" d="M485.1,401.7h9.6v13"/>
	<path class="st1" d="M461.2,414.7v-7.7"/>
	<path class="st1" d="M491.2,404.7h-26.4v10h26.4V404.7z"/>
	<path class="st1" d="M491.2,408.5h-26.4v2.1h26.4V408.5z"/>
	<path class="st1" d="M471.2,408.5v-3.9"/>
	<path class="st1" d="M478,408.5v-3.9"/>
	<path class="st1" d="M484.7,408.5v-3.9"/>
	<path class="st1" d="M528.2,414.7h-33.5v-13"/>
	<path class="st1" d="M524.7,404.7h-26.4v10h26.4V404.7z"/>
	<path class="st1" d="M524.7,408.5h-26.4v2.1h26.4V408.5z"/>
	<path class="st1" d="M504.7,408.5v-3.9"/>
	<path class="st1" d="M511.4,408.5v-3.9"/>
	<path class="st1" d="M518.2,408.5v-3.9"/>
	<path class="st1" d="M493.1,396.2h-4.2v2.2h4.2V396.2z"/>
	<path class="st1" d="M493.1,396.2v5.5"/>
	<path class="st1" d="M500.3,396.2h-4.2v2.2h4.2V396.2z"/>
	<path class="st1" d="M500.3,396.2v5.5"/>
	<path class="st1" d="M507.6,396.2h-4.2v2.2h4.2V396.2z"/>
	<path class="st1" d="M507.6,396.2v5.5"/>
	<path class="st1" d="M406.5,410.7h54.7v-3.7"/>
	<path class="st1" d="M461.2,414.7v-4h-54.7"/>
	<path class="st1" d="M423,410.7v4"/>
	<path class="st1" d="M429.3,410.7v4"/>
	<path class="st1" d="M435.5,410.7v4"/>
	<path class="st1" d="M441.7,410.7v4"/>
	<path class="st1" d="M447.9,410.7v4"/>
	<path class="st1" d="M447.1,159.5h-2v32.7h2V159.5z"/>
	<path class="st1" d="M467.2,151.2h-2v40.9h2V151.2z"/>
	<path class="st1" d="M467.2,182.9l17.9,14.5l-17.9-25.7"/>
	<path class="st1" d="M461.4,192.1l-14.3-20.5"/>
	<path class="st1" d="M447.1,182.9l11.4,9.2"/>
	<path class="st1" d="M450.8,192.1l14.3-20.5"/>
	<path class="st1" d="M465,182.9l-11.5,9.3"/>
	<path class="st1" d="M445.1,182.9l-17.9,14.5l17.9-25.7"/>
	<path class="st2" d="M485.1,401.7V197.3H471v-5.2h-34.6v5.2h-16.5v209.6H403v3.7h3.5v4h121.7v-13H485.1z"/>
	<path class="st2" d="M461.2,406.9v-5.2h23.9"/>
	<path class="st2" d="M461.2,406.9h-41.3"/>
	<path class="st0" d="M362.9,235.7c1.2,0,2.1-0.9,2.1-2s-1-2-2.1-2c-1.2,0-2.1,0.9-2.1,2S361.7,235.7,362.9,235.7z"/>
	<path class="st0" d="M224.1,233.8c0,0.4,0.1,0.8,0.4,1.1c0.2,0.3,0.6,0.6,1,0.7c0.4,0.1,0.8,0.2,1.2,0.1c0.4-0.1,0.8-0.3,1.1-0.5
		c0.3-0.3,0.5-0.6,0.6-1c0.1-0.4,0-0.8-0.1-1.1c-0.2-0.4-0.4-0.7-0.8-0.9c-0.3-0.2-0.8-0.3-1.2-0.3c-0.6,0-1.1,0.2-1.5,0.6
		C224.4,232.8,224.1,233.3,224.1,233.8z"/>
	<path class="st0" d="M382.3,278.6l-19.5-39.5l-19.4,39.5l-4.7,2.9v4.9h2.8v5.2h2.8v19.1l-49.8-35l-49.8,35v-19.1h2.8v-5.2h2.8v-4.9
		l-4.7-2.9l-19.4-39.5l-19.4,39.5l-4.7,2.9v4.9h2.8v5.2h2.8v123.1h173.7V291.6h2.8v-5.2h2.8v-4.9L382.3,278.6z"/>
	<path class="st1" d="M362.9,292.1c-5.8,0-5.5,5.6-5.5,5.6h-4.6v-18.3h-2v-5.4l12.1-35l12.1,35v5.4h-2v18.3h-4.6
		C368.3,297.8,368.7,292.1,362.9,292.1"/>
	<path class="st1" d="M366.1,281.6c0-0.8-0.3-1.6-1-2.1c-0.6-0.6-1.4-0.9-2.3-0.9s-1.7,0.3-2.3,0.9c-0.6,0.6-1,1.3-1,2.1v5.4h6.5
		V281.6z"/>
	<path class="st1" d="M362.9,364.6c0-0.8-0.3-1.6-1-2.1c-0.6-0.6-1.4-0.9-2.3-0.9s-1.7,0.3-2.3,0.9c-0.6,0.6-1,1.3-1,2.1v12.1h6.5
		V364.6z"/>
	<path class="st1" d="M369.4,364.6c0-0.8-0.3-1.6-1-2.1c-0.6-0.6-1.4-0.9-2.3-0.9s-1.7,0.3-2.3,0.9c-0.6,0.6-1,1.3-1,2.1v12.1h6.5
		V364.6z"/>
	<path class="st1" d="M366.1,388.1c0-0.8-0.3-1.6-1-2.1c-0.6-0.6-1.4-0.9-2.3-0.9s-1.7,0.3-2.3,0.9c-0.6,0.6-1,1.3-1,2.1v8.3h6.5
		V388.1z"/>
	<path class="st1" d="M297.9,346.7c0-0.8-0.4-1.5-1-2.1c-0.6-0.5-1.4-0.8-2.3-0.8c-0.9,0-1.7,0.3-2.3,0.8c-0.6,0.5-1,1.3-1,2.1v8.5
		h6.6V346.7z"/>
	<path class="st1" d="M304.5,346.7c0-0.8-0.4-1.6-1-2.2c-0.6-0.6-1.5-0.9-2.3-0.9s-1.7,0.3-2.3,0.9c-0.6,0.6-1,1.4-1,2.2v8.5h6.6
		V346.7z"/>
	<path class="st1" d="M311.2,346.7c0-0.8-0.4-1.6-1-2.2c-0.6-0.6-1.5-0.9-2.3-0.9c-0.9,0-1.7,0.3-2.3,0.9c-0.6,0.6-1,1.4-1,2.2v8.5
		h6.6V346.7z"/>
	<path class="st1" d="M317.8,346.7c0-0.8-0.4-1.5-1-2.1c-0.6-0.5-1.4-0.8-2.3-0.8c-0.9,0-1.7,0.3-2.3,0.8c-0.6,0.5-1,1.3-1,2.1v8.5
		h6.6V346.7z"/>
	<path class="st1" d="M324.4,346.7c0-0.8-0.4-1.6-1-2.2c-0.6-0.6-1.5-0.9-2.3-0.9c-0.9,0-1.7,0.3-2.3,0.9c-0.6,0.6-1,1.4-1,2.2v8.5
		h6.6V346.7z"/>
	<path class="st1" d="M331.1,346.7c0-0.8-0.4-1.6-1-2.2c-0.6-0.6-1.5-0.9-2.3-0.9s-1.7,0.3-2.3,0.9c-0.6,0.6-1,1.4-1,2.2v8.5h6.6
		V346.7z"/>
	<path class="st1" d="M337.7,346.7c0-0.8-0.4-1.5-1-2.1c-0.6-0.5-1.4-0.8-2.3-0.8c-0.9,0-1.7,0.3-2.3,0.8c-0.6,0.5-1,1.3-1,2.1v8.5
		h6.6V346.7z"/>
	<path class="st1" d="M344.3,346.7c0-0.8-0.3-1.6-1-2.2c-0.6-0.6-1.5-0.9-2.3-0.9c-0.9,0-1.7,0.3-2.3,0.9c-0.6,0.6-1,1.4-1,2.2v8.5
		h6.6V346.7z"/>
	<path class="st1" d="M311.9,318.7c0-4.2-1.8-8.3-5.1-11.3c-3.2-3-7.7-4.7-12.3-4.7c-4.6,0-9,1.7-12.3,4.7s-5.1,7.1-5.1,11.3"/>
	<path class="st1" d="M333.2,318.6c0-1.7-0.7-3.3-2-4.5c-1.3-1.2-3-1.9-4.8-1.9c-1.8,0-3.6,0.7-4.8,1.9c-1.3,1.2-2,2.8-2,4.5"/>
	<path class="st1" d="M366.1,319.7c0-0.8-0.3-1.6-1-2.1c-0.6-0.6-1.4-0.9-2.3-0.9s-1.7,0.3-2.3,0.9c-0.6,0.6-1,1.3-1,2.1v23.2h6.5
		V319.7z"/>
	<path class="st1" d="M362.9,239.1v-3.4"/>
	<path class="st1" d="M370.8,306.8v41.5H355v-41.5"/>
	<path class="st1" d="M355,306.8l2,1.4l2-1.4l2,1.4l2-1.4l2,1.4l2-1.4l2,1.4l2-1.4"/>
	<path class="st1" d="M350.1,291.4v2.6h-2.8v2.6h2.8v2.6h-2.8v2.6h2.8v2.6h-2.8v2.6h2.8v2.6h-2.8v2.6h2.8v2.6h-2.8v2.6h2.8v2.6h-2.8
		v2.6h2.8v2.6h-2.8v2.6h2.8v2.6"/>
	<path class="st1" d="M350.1,329.9h-2.8v2.6h2.8v2.6h-2.8v2.6h2.8v2.6h-2.8v2.6h2.8v2.6h-2.8v2.6h2.8v2.6h-2.8v2.6h2.8v2.6h-2.8v2.6
		h2.8v2.6h-2.8v2.6h2.8v2.6"/>
	<path class="st1" d="M350.1,365.8h-2.8v2.6h2.8v2.6h-2.8v2.6h2.8v2.6h-2.8v2.6h2.8v2.6h-2.8v2.6h2.8v2.6h-2.8v2.6h2.8v2.6h-2.8v2.6
		h2.8v2.6h-2.8v2.6h2.8v2.6"/>
	<path class="st1" d="M350.1,401.8h-2.8v2.6h2.8v2.6h-2.8v2.6h2.8v2.6h-2.8"/>
	<path class="st1" d="M362.9,235.7c1.2,0,2.1-0.9,2.1-2s-1-2-2.1-2c-1.2,0-2.1,0.9-2.1,2S361.7,235.7,362.9,235.7z"/>
	<path class="st1" d="M294.6,280.3l49.8,35"/>
	<path class="st1" d="M311.9,318.7h7.6"/>
	<path class="st1" d="M333.2,318.6h11.2"/>
	<path class="st1" d="M317.8,318.7h-4.3v22h4.3V318.7z"/>
	<path class="st1" d="M338.6,318.7h-4.3v22h4.3V318.7z"/>
	<path class="st1" d="M294.6,340.7h49.8"/>
	<path class="st1" d="M294.6,358.1h49.8"/>
	<path class="st1" d="M306.9,321.3c1.6-6.3-2.6-12.6-9.4-14c-6.8-1.5-13.6,2.4-15.2,8.7c-1.6,6.3,2.6,12.6,9.4,14
		C298.4,331.4,305.3,327.5,306.9,321.3z"/>
	<path class="st1" d="M294.6,321c1.4,0,2.6-1.1,2.6-2.4c0-1.3-1.2-2.4-2.6-2.4c-1.4,0-2.6,1.1-2.6,2.4
		C292,319.9,293.1,321,294.6,321z"/>
	<path class="st1" d="M293.3,316.6c0,0-4.3-7.4,1.3-9.6"/>
	<path class="st1" d="M295.9,316.6c0,0,4.3-7.4-1.3-9.6"/>
	<path class="st1" d="M292.3,317.5c0,0-7.8-4.4-4.1-9"/>
	<path class="st1" d="M294.6,316.2c0,0-0.3-8.4-6.4-7.7"/>
	<path class="st1" d="M292,318.7c0,0-9.2-0.3-8.4-5.9"/>
	<path class="st1" d="M293.3,316.5c0,0-4.8-7.2-9.7-3.7"/>
	<path class="st1" d="M292.4,319.8c0,0-8.1,4-10.5-1.2"/>
	<path class="st1" d="M292.4,317.4c0,0-8.1-4-10.5,1.2"/>
	<path class="st1" d="M293.3,320.7c0,0-4.8,7.2-9.7,3.7"/>
	<path class="st1" d="M292,318.6c0,0-9.2,0.3-8.4,5.9"/>
	<path class="st1" d="M294.6,321c0,0-0.3,8.4-6.4,7.7"/>
	<path class="st1" d="M292.3,319.8c0,0-7.8,4.4-4.1,9"/>
	<path class="st1" d="M295.9,320.6c0,0,4.3,7.4-1.3,9.6"/>
	<path class="st1" d="M293.3,320.6c0,0-4.3,7.4,1.3,9.6"/>
	<path class="st1" d="M296.8,319.8c0,0,7.8,4.4,4.1,9"/>
	<path class="st1" d="M294.5,321c0,0,0.3,8.4,6.4,7.7"/>
	<path class="st1" d="M297.1,318.6c0,0,9.2,0.3,8.4,5.9"/>
	<path class="st1" d="M295.8,320.7c0,0,4.8,7.2,9.7,3.7"/>
	<path class="st1" d="M296.8,317.4c0,0,8.1-4,10.5,1.2"/>
	<path class="st1" d="M296.8,319.8c0,0,8.1,4,10.5-1.2"/>
	<path class="st1" d="M295.8,316.5c0,0,4.8-7.2,9.7-3.7"/>
	<path class="st1" d="M297.1,318.7c0,0,9.2-0.3,8.4-5.9"/>
	<path class="st1" d="M294.5,316.2c0,0,0.3-8.4,6.4-7.7"/>
	<path class="st1" d="M296.8,317.5c0,0,7.8-4.4,4.1-9"/>
	<path class="st1" d="M311.7,382.7h-3.5v22.2h3.5V382.7z"/>
	<path class="st1" d="M344.3,404.9h-5.1v-22.2h3.5"/>
	<path class="st1" d="M294.6,404.9h44.7"/>
	<path class="st1" d="M315.7,404.9l7.5,9.7"/>
	<path class="st1" d="M315.7,409.8h-21.1"/>
	<path class="st1" d="M301.4,382.7h-13.7v22.2h13.7V382.7z"/>
	<path class="st1" d="M332.2,382.7h-13.7v22.2h13.7V382.7z"/>
	<path class="st1" d="M362.9,239.1v-3.4"/>
	<path class="st1" d="M375.7,291.4v2.6h2.8v2.6h-2.8v2.6h2.8v2.6h-2.8v2.6h2.8v2.6h-2.8v2.6h2.8v2.6h-2.8v2.6h2.8v2.6h-2.8v2.6h2.8
		v2.6h-2.8v2.6h2.8v2.6h-2.8v2.6"/>
	<path class="st1" d="M375.7,329.9h2.8v2.6h-2.8v2.6h2.8v2.6h-2.8v2.6h2.8v2.6h-2.8v2.6h2.8v2.6h-2.8v2.6h2.8v2.6h-2.8v2.6h2.8v2.6
		h-2.8v2.6h2.8v2.6h-2.8v2.6"/>
	<path class="st1" d="M375.7,365.8h2.8v2.6h-2.8v2.6h2.8v2.6h-2.8v2.6h2.8v2.6h-2.8v2.6h2.8v2.6h-2.8v2.6h2.8v2.6h-2.8v2.6h2.8v2.6
		h-2.8v2.6h2.8v2.6h-2.8v2.6"/>
	<path class="st1" d="M375.7,401.8h2.8v2.6h-2.8v2.6h2.8v2.6h-2.8v2.6h2.8"/>
	<path class="st1" d="M362.9,231.8v-2.7"/>
	<path class="st1" d="M226.3,292.1c5.8,0,5.5,5.6,5.5,5.6h4.6v-18.3h2v-5.4l-12.1-35l-12.1,35v5.4h2v18.3h4.6
		C220.8,297.8,220.5,292.1,226.3,292.1"/>
	<path class="st1" d="M223,281.6c0-0.8,0.3-1.6,1-2.1c0.6-0.6,1.4-0.9,2.3-0.9s1.7,0.3,2.3,0.9c0.6,0.6,1,1.3,1,2.1v5.4H223V281.6z"
		/>
	<path class="st1" d="M226.3,364.6c0-0.8,0.3-1.6,1-2.1c0.6-0.6,1.4-0.9,2.3-0.9s1.7,0.3,2.3,0.9c0.6,0.6,1,1.3,1,2.1v12.1h-6.5
		V364.6z"/>
	<path class="st1" d="M219.8,364.6c0-0.8,0.3-1.6,1-2.1c0.6-0.6,1.4-0.9,2.3-0.9s1.7,0.3,2.3,0.9c0.6,0.6,1,1.3,1,2.1v12.1h-6.5
		V364.6z"/>
	<path class="st1" d="M223,388.1c0-0.8,0.3-1.6,1-2.1c0.6-0.6,1.4-0.9,2.3-0.9s1.7,0.3,2.3,0.9c0.6,0.6,1,1.3,1,2.1v8.3H223V388.1z"
		/>
	<path class="st1" d="M284.6,346.7c0-0.8,0.3-1.6,1-2.2c0.6-0.6,1.5-0.9,2.3-0.9c0.9,0,1.7,0.3,2.3,0.9c0.6,0.6,1,1.4,1,2.2v8.5
		h-6.6V346.7z"/>
	<path class="st1" d="M278,346.7c0-0.8,0.3-1.6,1-2.2c0.6-0.6,1.5-0.9,2.3-0.9s1.7,0.3,2.3,0.9c0.6,0.6,1,1.4,1,2.2v8.5H278V346.7z"
		/>
	<path class="st1" d="M271.4,346.7c0-0.8,0.4-1.5,1-2.1c0.6-0.5,1.4-0.8,2.3-0.8c0.9,0,1.7,0.3,2.3,0.8c0.6,0.5,1,1.3,1,2.1v8.5
		h-6.6V346.7z"/>
	<path class="st1" d="M264.7,346.7c0-0.8,0.4-1.6,1-2.2c0.6-0.6,1.5-0.9,2.3-0.9c0.9,0,1.7,0.3,2.3,0.9c0.6,0.6,1,1.4,1,2.2v8.5
		h-6.6V346.7z"/>
	<path class="st1" d="M258.1,346.7c0-0.8,0.3-1.6,1-2.2c0.6-0.6,1.5-0.9,2.3-0.9c0.9,0,1.7,0.3,2.3,0.9c0.6,0.6,1,1.4,1,2.2v8.5
		h-6.6V346.7z"/>
	<path class="st1" d="M251.5,346.7c0-0.8,0.4-1.5,1-2.1c0.6-0.5,1.4-0.8,2.3-0.8c0.9,0,1.7,0.3,2.3,0.8c0.6,0.5,1,1.3,1,2.1v8.5
		h-6.6V346.7z"/>
	<path class="st1" d="M244.8,346.7c0-0.8,0.4-1.6,1-2.2c0.6-0.6,1.5-0.9,2.3-0.9c0.9,0,1.7,0.3,2.3,0.9c0.6,0.6,1,1.4,1,2.2v8.5
		h-6.6V346.7z"/>
	<path class="st1" d="M256,318.6c0-1.7,0.7-3.3,2-4.5c1.3-1.2,3-1.9,4.8-1.9c1.8,0,3.6,0.7,4.8,1.9c1.3,1.2,2,2.8,2,4.5"/>
	<path class="st1" d="M223,319.7c0-0.8,0.3-1.6,1-2.1c0.6-0.6,1.4-0.9,2.3-0.9s1.7,0.3,2.3,0.9c0.6,0.6,1,1.3,1,2.1v23.2H223V319.7z
		"/>
	<path class="st1" d="M226.3,239.1v-3.4"/>
	<path class="st1" d="M218.4,306.8v41.5h15.7v-41.5"/>
	<path class="st1" d="M234.1,306.8l-2,1.4l-2-1.4l-2,1.4l-2-1.4l-2,1.4l-2-1.4l-2,1.4l-2-1.4"/>
	<path class="st1" d="M239.1,291.4v2.6h2.8v2.6h-2.8v2.6h2.8v2.6h-2.8v2.6h2.8v2.6h-2.8v2.6h2.8v2.6h-2.8v2.6h2.8v2.6h-2.8v2.6h2.8
		v2.6h-2.8v2.6h2.8v2.6h-2.8v2.6"/>
	<path class="st1" d="M239.1,329.9h2.8v2.6h-2.8v2.6h2.8v2.6h-2.8v2.6h2.8v2.6h-2.8v2.6h2.8v2.6h-2.8v2.6h2.8v2.6h-2.8v2.6h2.8v2.6
		h-2.8v2.6h2.8v2.6h-2.8v2.6"/>
	<path class="st1" d="M239.1,365.8h2.8v2.6h-2.8v2.6h2.8v2.6h-2.8v2.6h2.8v2.6h-2.8v2.6h2.8v2.6h-2.8v2.6h2.8v2.6h-2.8v2.6h2.8v2.6
		h-2.8v2.6h2.8v2.6h-2.8v2.6"/>
	<path class="st1" d="M239.1,401.8h2.8v2.6h-2.8v2.6h2.8v2.6h-2.8v2.6h2.8"/>
	<path class="st1" d="M224.1,233.8c0,0.4,0.1,0.8,0.4,1.1c0.2,0.3,0.6,0.6,1,0.7c0.4,0.1,0.8,0.2,1.2,0.1c0.4-0.1,0.8-0.3,1.1-0.5
		c0.3-0.3,0.5-0.6,0.6-1c0.1-0.4,0-0.8-0.1-1.1c-0.2-0.4-0.4-0.7-0.8-0.9c-0.3-0.2-0.8-0.3-1.2-0.3c-0.6,0-1.1,0.2-1.5,0.6
		C224.4,232.8,224.1,233.3,224.1,233.8L224.1,233.8z"/>
	<path class="st1" d="M294.6,280.3l-49.8,35"/>
	<path class="st1" d="M277.3,318.7h-7.6"/>
	<path class="st1" d="M256,318.6h-11.2"/>
	<path class="st1" d="M271.3,340.7h4.3v-22h-4.3V340.7z"/>
	<path class="st1" d="M250.6,340.7h4.3v-22h-4.3V340.7z"/>
	<path class="st1" d="M294.6,340.7h-49.8"/>
	<path class="st1" d="M294.6,358.1h-49.8"/>
	<path class="st1" d="M277.5,404.9h3.5v-22.2h-3.5V404.9z"/>
	<path class="st1" d="M244.8,404.9h5.1v-22.2h-3.5"/>
	<path class="st1" d="M294.6,404.9h-44.7"/>
	<path class="st1" d="M273.4,404.9l-7.5,9.7"/>
	<path class="st1" d="M273.5,409.8h21.1"/>
	<path class="st1" d="M257,404.9h13.7v-22.2H257V404.9z"/>
	<path class="st1" d="M226.3,239.1v-3.4"/>
	<path class="st1" d="M213.5,291.4v2.6h-2.8v2.6h2.8v2.6h-2.8v2.6h2.8v2.6h-2.8v2.6h2.8v2.6h-2.8v2.6h2.8v2.6h-2.8v2.6h2.8v2.6h-2.8
		v2.6h2.8v2.6h-2.8v2.6h2.8v2.6"/>
	<path class="st1" d="M213.5,329.9h-2.8v2.6h2.8v2.6h-2.8v2.6h2.8v2.6h-2.8v2.6h2.8v2.6h-2.8v2.6h2.8v2.6h-2.8v2.6h2.8v2.6h-2.8v2.6
		h2.8v2.6h-2.8v2.6h2.8v2.6"/>
	<path class="st1" d="M213.5,365.8h-2.8v2.6h2.8v2.6h-2.8v2.6h2.8v2.6h-2.8v2.6h2.8v2.6h-2.8v2.6h2.8v2.6h-2.8v2.6h2.8v2.6h-2.8v2.6
		h2.8v2.6h-2.8v2.6h2.8v2.6"/>
	<path class="st1" d="M213.5,401.8h-2.8v2.6h2.8v2.6h-2.8v2.6h2.8v2.6h-2.8"/>
	<path class="st1" d="M226.3,231.8v-2.7"/>
	<path class="st1" d="M244.8,382.7h6.6c0-3,1.3-5.9,3.6-8.1c2.3-2.1,5.5-3.3,8.8-3.3c3.3,0,6.4,1.2,8.8,3.3c2.3,2.1,3.6,5,3.6,8.1h6
		c0-3,1.3-5.9,3.6-8.1c2.3-2.1,5.5-3.3,8.8-3.3c3.3,0,6.4,1.2,8.8,3.3c2.3,2.1,3.6,5,3.6,8.1h6c0-1.5,0.2-3,0.8-4.5
		c0.6-1.4,1.5-2.7,2.7-3.8c1.2-1.1,2.5-2,4.1-2.5c1.5-0.6,3.2-0.9,4.8-0.9c1.7,0,3.3,0.3,4.8,0.9c1.5,0.6,2.9,1.5,4.1,2.5
		c1.2,1.1,2.1,2.4,2.7,3.8s0.9,2.9,0.9,4.5h6.6"/>
	<path class="st1" d="M362.9,266.8l-19.4,11.9"/>
	<path class="st1" d="M362.9,266.8l19.4,11.9"/>
	<path class="st1" d="M226.3,266.8l19.4,11.9"/>
	<path class="st1" d="M226.3,266.8l-19.4,11.9"/>
	<path class="st2" d="M382.3,278.6l-19.5-39.5l-19.4,39.5l-4.7,2.9v4.9h2.8v5.2h2.8v19.1l-49.8-35l-49.8,35v-19.1h2.8v-5.2h2.8v-4.9
		l-4.7-2.9l-19.4-39.5l-19.4,39.5l-4.7,2.9v4.9h2.8v5.2h2.8v123.1h173.7V291.6h2.8v-5.2h2.8v-4.9L382.3,278.6z"/>
	<path class="st2" d="M344.3,310.6v104"/>
	<path class="st2" d="M244.8,310.6v104"/>
	<path class="st0" d="M835.8,222.1v-29l-3.3,4.3H810l0,20.9h-5V287H801v43.5h-4.6v84.2h46.8V222.1H835.8z"/>
	<path class="st1" d="M835.8,222.1v192.5h7.3"/>
	<path class="st1" d="M835.8,172.8v20.4"/>
	<path class="st1" d="M835.8,207.9h-11.4v10.5h-8.1"/>
	<path class="st1" d="M801,330.5h9v84.2h-12.8"/>
	<path class="st1" d="M830,351.6h-20v63.1h20V351.6z"/>
	<path class="st1" d="M835.8,330.5h6.5"/>
	<path class="st1" d="M835.8,351.6h6.5"/>
	<path class="st1" d="M802.7,332.7h-3.5v1.7h3.5V332.7z"/>
	<path class="st1" d="M808,332.7h-3.5v1.7h3.5V332.7z"/>
	<path class="st1" d="M808,337.8h-3.5v1.7h3.5V337.8z"/>
	<path class="st1" d="M802.7,343h-3.5v1.7h3.5V343z"/>
	<path class="st1" d="M808,343h-3.5v1.7h3.5V343z"/>
	<path class="st1" d="M802.7,348.2h-3.5v1.7h3.5V348.2z"/>
	<path class="st1" d="M808,353.4h-3.5v1.7h3.5V353.4z"/>
	<path class="st1" d="M802.7,358.5h-3.5v1.7h3.5V358.5z"/>
	<path class="st1" d="M808,358.5h-3.5v1.7h3.5V358.5z"/>
	<path class="st1" d="M808,363.7h-3.5v1.7h3.5V363.7z"/>
	<path class="st1" d="M802.7,368.9h-3.5v1.7h3.5V368.9z"/>
	<path class="st1" d="M808,368.9h-3.5v1.7h3.5V368.9z"/>
	<path class="st1" d="M802.7,374h-3.5v1.7h3.5V374z"/>
	<path class="st1" d="M808,374h-3.5v1.7h3.5V374z"/>
	<path class="st1" d="M802.7,379.2h-3.5v1.7h3.5V379.2z"/>
	<path class="st1" d="M802.7,384.4h-3.5v1.7h3.5V384.4z"/>
	<path class="st1" d="M808,384.4h-3.5v1.7h3.5V384.4z"/>
	<path class="st1" d="M808,389.6h-3.5v1.7h3.5V389.6z"/>
	<path class="st1" d="M802.7,394.7h-3.5v1.7h3.5V394.7z"/>
	<path class="st1" d="M802.7,399.9h-3.5v1.7h3.5V399.9z"/>
	<path class="st1" d="M808,399.9h-3.5v1.7h3.5V399.9z"/>
	<path class="st1" d="M808,405.1h-3.5v1.7h3.5V405.1z"/>
	<path class="st1" d="M802.7,410.3h-3.5v1.7h3.5V410.3z"/>
	<path class="st1" d="M815.3,353.4h-3.1v1.7h3.1V353.4z"/>
	<path class="st1" d="M815.3,358.5h-3.1v1.7h3.1V358.5z"/>
	<path class="st1" d="M815.3,363.7h-3.1v1.7h3.1V363.7z"/>
	<path class="st1" d="M815.3,379.2h-3.1v1.7h3.1V379.2z"/>
	<path class="st1" d="M815.3,384.4h-3.1v1.7h3.1V384.4z"/>
	<path class="st1" d="M815.3,394.7h-3.1v1.7h3.1V394.7z"/>
	<path class="st1" d="M815.3,399.9h-3.1v1.7h3.1V399.9z"/>
	<path class="st1" d="M815.3,405.1h-3.1v1.7h3.1V405.1z"/>
	<path class="st1" d="M815.3,410.3h-3.1v1.7h3.1V410.3z"/>
	<path class="st1" d="M821.5,353.4h-3.1v1.7h3.1V353.4z"/>
	<path class="st1" d="M821.5,363.7h-3.1v1.7h3.1V363.7z"/>
	<path class="st1" d="M821.5,368.9h-3.1v1.7h3.1V368.9z"/>
	<path class="st1" d="M821.5,374h-3.1v1.7h3.1V374z"/>
	<path class="st1" d="M821.5,384.4h-3.1v1.7h3.1V384.4z"/>
	<path class="st1" d="M821.5,389.6h-3.1v1.7h3.1V389.6z"/>
	<path class="st1" d="M821.5,394.7h-3.1v1.7h3.1V394.7z"/>
	<path class="st1" d="M821.5,405.1h-3.1v1.7h3.1V405.1z"/>
	<path class="st1" d="M840.7,353.4h-3.1v1.7h3.1V353.4z"/>
	<path class="st1" d="M840.7,358.5h-3.1v1.7h3.1V358.5z"/>
	<path class="st1" d="M840.7,363.7h-3.1v1.7h3.1V363.7z"/>
	<path class="st1" d="M840.7,374h-3.1v1.7h3.1V374z"/>
	<path class="st1" d="M840.7,337.6h-3.1v1.7h3.1V337.6z"/>
	<path class="st1" d="M840.7,347.9h-3.1v1.7h3.1V347.9z"/>
	<path class="st1" d="M840.7,379.2h-3.1v1.7h3.1V379.2z"/>
	<path class="st1" d="M840.7,384.4h-3.1v1.7h3.1V384.4z"/>
	<path class="st1" d="M840.7,394.7h-3.1v1.7h3.1V394.7z"/>
	<path class="st1" d="M840.7,399.9h-3.1v1.7h3.1V399.9z"/>
	<path class="st1" d="M840.7,410.3h-3.1v1.7h3.1V410.3z"/>
	<path class="st1" d="M827.6,358.5h-3.1v1.7h3.1V358.5z"/>
	<path class="st1" d="M827.6,363.7h-3.1v1.7h3.1V363.7z"/>
	<path class="st1" d="M827.6,368.9h-3.1v1.7h3.1V368.9z"/>
	<path class="st1" d="M827.6,374h-3.1v1.7h3.1V374z"/>
	<path class="st1" d="M827.6,379.2h-3.1v1.7h3.1V379.2z"/>
	<path class="st1" d="M827.6,384.4h-3.1v1.7h3.1V384.4z"/>
	<path class="st1" d="M827.6,394.7h-3.1v1.7h3.1V394.7z"/>
	<path class="st1" d="M827.6,399.9h-3.1v1.7h3.1V399.9z"/>
	<path class="st1" d="M827.6,405.1h-3.1v1.7h3.1V405.1z"/>
	<path class="st1" d="M827.6,410.3h-3.1v1.7h3.1V410.3z"/>
	<path class="st1" d="M808,410.3h-3.5v1.7h3.5V410.3z"/>
	<path class="st1" d="M832.5,346.2h-5"/>
	<path class="st1" d="M823.5,346.2h-5"/>
	<path class="st1" d="M832.5,337.6h-5"/>
	<path class="st1" d="M823.5,337.6h-5"/>
	<path class="st1" d="M832.5,328.9h-5"/>
	<path class="st1" d="M823.5,328.9h-5"/>
	<path class="st1" d="M832.5,320.2h-5"/>
	<path class="st1" d="M823.5,320.2h-5"/>
	<path class="st1" d="M832.5,311.6h-5"/>
	<path class="st1" d="M823.5,311.6h-5"/>
	<path class="st1" d="M832.5,302.9h-5"/>
	<path class="st1" d="M823.5,302.9h-5"/>
	<path class="st1" d="M832.5,294.3h-5"/>
	<path class="st1" d="M823.5,294.3h-5"/>
	<path class="st1" d="M832.5,285.6h-5"/>
	<path class="st1" d="M823.5,285.6h-5"/>
	<path class="st1" d="M832.5,276.9h-5"/>
	<path class="st1" d="M823.5,276.9h-5"/>
	<path class="st1" d="M832.5,268.2h-5"/>
	<path class="st1" d="M823.5,268.2h-5"/>
	<path class="st1" d="M832.5,259.6h-5"/>
	<path class="st1" d="M823.5,259.6h-5"/>
	<path class="st1" d="M832.5,250.9h-5"/>
	<path class="st1" d="M823.5,250.9h-5"/>
	<path class="st1" d="M832.5,242.3h-5"/>
	<path class="st1" d="M823.5,242.3h-5"/>
	<path class="st1" d="M832.5,233.6h-5"/>
	<path class="st1" d="M823.5,233.6h-5"/>
	<path class="st1" d="M832.5,224.9h-5"/>
	<path class="st1" d="M843.2,328.9h-4.1"/>
	<path class="st1" d="M843.2,320.2h-4.1"/>
	<path class="st1" d="M843.2,311.6h-4.1"/>
	<path class="st1" d="M843.2,302.9h-4.1"/>
	<path class="st1" d="M843.2,294.3h-4.1"/>
	<path class="st1" d="M843.2,285.6h-4.1"/>
	<path class="st1" d="M843.2,276.9h-4.1"/>
	<path class="st1" d="M843.2,268.2h-4.1"/>
	<path class="st1" d="M843.2,259.6h-4.1"/>
	<path class="st1" d="M843.2,250.9h-4.1"/>
	<path class="st1" d="M843.2,242.3h-4.1"/>
	<path class="st1" d="M843.2,233.6h-4.1"/>
	<path class="st1" d="M843.2,224.9h-4.1"/>
	<path class="st1" d="M823.5,224.9h-5"/>
	<path class="st1" d="M815,346.2h-5"/>
	<path class="st1" d="M815,337.6h-5"/>
	<path class="st1" d="M815,328.9h-5"/>
	<path class="st1" d="M815,320.2h-5"/>
	<path class="st1" d="M815,311.6h-5"/>
	<path class="st1" d="M815,302.9h-5"/>
	<path class="st1" d="M815,294.3h-5"/>
	<path class="st1" d="M806.5,328.9h-5"/>
	<path class="st1" d="M806.5,320.2h-5"/>
	<path class="st1" d="M806.5,311.6h-5"/>
	<path class="st1" d="M806.5,302.9h-5"/>
	<path class="st1" d="M806.5,294.3h-5"/>
	<path class="st1" d="M815,285.6h-5"/>
	<path class="st1" d="M815,276.9h-5"/>
	<path class="st1" d="M815,268.2h-5"/>
	<path class="st1" d="M815,259.6h-5"/>
	<path class="st1" d="M815,250.9h-5"/>
	<path class="st1" d="M815,242.3h-5"/>
	<path class="st1" d="M815,233.6h-5"/>
	<path class="st1" d="M815,224.9h-5"/>
	<path class="st2" d="M835.8,222.1v-29l-3.3,4.3H810l0,20.9h-5V287H801v43.5h-4.6v84.2h46.8V222.1H835.8z"/>
	<path class="st1" d="M832.5,197.5l-16.2,20.9"/>
	<path class="st1" d="M816.4,218.4H810"/>
	<path class="st0" d="M35.4,376.8h3v5.2h2.5v32.6h188.8V382h2.5v-5.2h3c-52.4-39-91.5-37.8-99.9-37.8S87.7,337.8,35.4,376.8z"/>
	<path class="st1" d="M135.3,343.5c7.4,0,41.9-1.1,88.1,33.3"/>
	<path class="st1" d="M229.7,382h-11.6v-5.3h14.1"/>
	<path class="st1" d="M218.1,382h-82.8"/>
	<path class="st1" d="M220.7,382v32.6"/>
	<path class="st1" d="M220.7,391.9h-85.4"/>
	<path class="st1" d="M220.7,406h-85.4"/>
	<path class="st1" d="M220.7,408h-85.4"/>
	<path class="st1" d="M139.5,408h-2v3.2h2V408z"/>
	<path class="st1" d="M147.3,408h-2v3.2h2V408z"/>
	<path class="st1" d="M155.2,408h-2v6.6h2V408z"/>
	<path class="st1" d="M163.1,408h-2v3.2h2V408z"/>
	<path class="st1" d="M170.9,408h-2v3.2h2V408z"/>
	<path class="st1" d="M178.8,408h-2v3.2h2V408z"/>
	<path class="st1" d="M186.6,408h-2v3.2h2V408z"/>
	<path class="st1" d="M194.5,408h-2v6.6h2V408z"/>
	<path class="st1" d="M202.4,408h-2v3.2h2V408z"/>
	<path class="st1" d="M210.2,408h-2v3.2h2V408z"/>
	<path class="st1" d="M218.1,408h-2v3.2h2V408z"/>
	<path class="st1" d="M154.2,391.9V406"/>
	<path class="st1" d="M181.9,391.9V406"/>
	<path class="st1" d="M213.6,391.9V406"/>
	<path class="st1" d="M135.3,394.8v2.3"/>
	<path class="st1" d="M136.5,396H134"/>
	<path class="st1" d="M142.4,394.8v2.3"/>
	<path class="st1" d="M143.6,396h-2.5"/>
	<path class="st1" d="M149.4,394.8v2.3"/>
	<path class="st1" d="M150.7,396h-2.5"/>
	<path class="st1" d="M135.3,400.7v2.3"/>
	<path class="st1" d="M136.5,401.9H134"/>
	<path class="st1" d="M142.4,400.7v2.3"/>
	<path class="st1" d="M143.6,401.9h-2.5"/>
	<path class="st1" d="M149.4,400.7v2.3"/>
	<path class="st1" d="M150.7,401.9h-2.5"/>
	<path class="st1" d="M187.1,394.8v2.3"/>
	<path class="st1" d="M188.4,396h-2.5"/>
	<path class="st1" d="M194.2,394.8v2.3"/>
	<path class="st1" d="M195.5,396h-2.5"/>
	<path class="st1" d="M201.3,394.8v2.3"/>
	<path class="st1" d="M202.5,396H200"/>
	<path class="st1" d="M187.1,400.7v2.3"/>
	<path class="st1" d="M188.4,401.9h-2.5"/>
	<path class="st1" d="M194.2,400.7v2.3"/>
	<path class="st1" d="M195.5,401.9h-2.5"/>
	<path class="st1" d="M201.3,400.7v2.3"/>
	<path class="st1" d="M202.5,401.9H200"/>
	<path class="st1" d="M208.4,394.8v2.3"/>
	<path class="st1" d="M209.7,396h-2.5"/>
	<path class="st1" d="M202.6,401.9h-2.5"/>
	<path class="st1" d="M208.4,400.7v2.3"/>
	<path class="st1" d="M209.7,401.9h-2.5"/>
	<path class="st1" d="M181.9,394.7h-13v1.2h13V394.7z"/>
	<path class="st1" d="M181.9,398.3h-13v1.2h13V398.3z"/>
	<path class="st1" d="M181.9,401.9h-13v1.2h13V401.9z"/>
	<path class="st1" d="M220.7,394.7h-4v1.2h4V394.7z"/>
	<path class="st1" d="M220.7,398.3h-4v1.2h4V398.3z"/>
	<path class="st1" d="M220.7,401.9h-4v1.2h4V401.9z"/>
	<path class="st1" d="M135.3,385.7h5"/>
	<path class="st1" d="M146.4,385.7h5"/>
	<path class="st1" d="M157.4,385.7h5"/>
	<path class="st1" d="M168.5,385.7h5"/>
	<path class="st1" d="M179.6,385.7h5"/>
	<path class="st1" d="M190.7,385.7h5"/>
	<path class="st1" d="M201.7,385.7h5"/>
	<path class="st1" d="M212.8,385.7h5"/>
	<path class="st1" d="M135.3,343.5c-7.4,0-41.9-1.1-88.1,33.3"/>
	<path class="st1" d="M40.9,382h11.6v-5.3H38.4"/>
	<path class="st1" d="M52.5,382h82.8"/>
	<path class="st1" d="M49.9,382v32.6"/>
	<path class="st1" d="M49.9,391.9h85.4"/>
	<path class="st1" d="M49.9,406h85.4"/>
	<path class="st1" d="M49.9,408h85.4"/>
	<path class="st1" d="M131.1,411.2h2V408h-2V411.2z"/>
	<path class="st1" d="M123.2,411.2h2V408h-2V411.2z"/>
	<path class="st1" d="M115.4,414.7h2V408h-2V414.7z"/>
	<path class="st1" d="M107.5,411.2h2V408h-2V411.2z"/>
	<path class="st1" d="M99.6,411.2h2V408h-2V411.2z"/>
	<path class="st1" d="M91.8,411.2h2V408h-2V411.2z"/>
	<path class="st1" d="M83.9,411.2h2V408h-2V411.2z"/>
	<path class="st1" d="M76.1,414.7h2V408h-2V414.7z"/>
	<path class="st1" d="M68.2,411.2h2V408h-2V411.2z"/>
	<path class="st1" d="M62.1,376.8h2v-3.2h-2V376.8z"/>
	<path class="st1" d="M77.6,376.8h2v-3.2h-2V376.8z"/>
	<path class="st1" d="M93.1,376.8h2v-3.2h-2V376.8z"/>
	<path class="st1" d="M108.6,376.8h2v-3.2h-2V376.8z"/>
	<path class="st1" d="M124.1,376.8h2v-3.2h-2V376.8z"/>
	<path class="st1" d="M139.5,376.8h2v-3.2h-2V376.8z"/>
	<path class="st1" d="M155,376.8h2v-3.2h-2V376.8z"/>
	<path class="st1" d="M170.5,376.8h2v-3.2h-2V376.8z"/>
	<path class="st1" d="M186,376.8h2v-3.2h-2V376.8z"/>
	<path class="st1" d="M201.5,376.8h2v-3.2h-2V376.8z"/>
	<path class="st1" d="M60.3,411.2h2V408h-2V411.2z"/>
	<path class="st1" d="M52.5,411.2h2V408h-2V411.2z"/>
	<path class="st1" d="M116.3,391.9V406"/>
	<path class="st1" d="M88.7,391.9V406"/>
	<path class="st1" d="M56.9,391.9V406"/>
	<path class="st1" d="M135.3,394.8v2.3"/>
	<path class="st1" d="M134,396h2.5"/>
	<path class="st1" d="M128.2,394.8v2.3"/>
	<path class="st1" d="M126.9,396h2.5"/>
	<path class="st1" d="M121.1,394.8v2.3"/>
	<path class="st1" d="M119.9,396h2.5"/>
	<path class="st1" d="M135.3,400.7v2.3"/>
	<path class="st1" d="M134,401.9h2.5"/>
	<path class="st1" d="M128.2,400.7v2.3"/>
	<path class="st1" d="M126.9,401.9h2.5"/>
	<path class="st1" d="M121.1,400.7v2.3"/>
	<path class="st1" d="M119.9,401.9h2.5"/>
	<path class="st1" d="M83.4,394.8v2.3"/>
	<path class="st1" d="M82.2,396h2.5"/>
	<path class="st1" d="M76.4,394.8v2.3"/>
	<path class="st1" d="M75.1,396h2.5"/>
	<path class="st1" d="M69.3,394.8v2.3"/>
	<path class="st1" d="M68,396h2.5"/>
	<path class="st1" d="M83.4,400.7v2.3"/>
	<path class="st1" d="M82.2,401.9h2.5"/>
	<path class="st1" d="M76.4,400.7v2.3"/>
	<path class="st1" d="M75.1,401.9h2.5"/>
	<path class="st1" d="M69.3,400.7v2.3"/>
	<path class="st1" d="M68,401.9h2.5"/>
	<path class="st1" d="M62.1,394.8v2.3"/>
	<path class="st1" d="M60.9,396h2.5"/>
	<path class="st1" d="M67.9,401.9h2.5"/>
	<path class="st1" d="M62.1,400.7v2.3"/>
	<path class="st1" d="M60.9,401.9h2.5"/>
	<path class="st1" d="M88.6,395.9h13v-1.2h-13V395.9z"/>
	<path class="st1" d="M88.6,399.5h13v-1.2h-13V399.5z"/>
	<path class="st1" d="M88.6,403.1h13v-1.2h-13V403.1z"/>
	<path class="st1" d="M49.9,395.9h4v-1.2h-4V395.9z"/>
	<path class="st1" d="M49.9,399.5h4v-1.2h-4V399.5z"/>
	<path class="st1" d="M49.9,403.1h4v-1.2h-4V403.1z"/>
	<path class="st1" d="M135.3,385.7h-5"/>
	<path class="st1" d="M124.2,385.7h-5"/>
	<path class="st1" d="M113.1,385.7h-5"/>
	<path class="st1" d="M102,385.7h-5"/>
	<path class="st1" d="M91,385.7h-5"/>
	<path class="st1" d="M79.9,385.7h-5"/>
	<path class="st1" d="M68.8,385.7h-5"/>
	<path class="st1" d="M57.7,385.7h-5"/>
	<path class="st1" d="M232.2,376.8h-96.9"/>
	<path class="st1" d="M38.4,376.8h96.9"/>
	<path class="st2" d="M35.4,376.8h3v5.2h2.5v32.6h188.8V382h2.5v-5.2h3c-52.4-39-91.5-37.8-99.9-37.8S87.7,337.8,35.4,376.8z"/>
	<path class="st0" d="M744.9,308.1h7.3l18.8,27.2"/>
	<path class="st0" d="M771.1,335.3L771.1,335.3l0-59.2h3.2l-3.2-3.2v-17.4l-14.8-27.3l-14.8,27.3V273l-3.2,3.2h3.2v32h-3.9l-11.1,16
		h-44.4v0L678,313l-4.2,11.1h-16.1l-4.8-5.5l-4.8,5.5h-16.1v0l-4.2-11.1l-4.2,11.1h-44.4l-11.1-16H561h-7.3l-22.1,32v74.6H561h29.4
		h31.2h6.4h6.4h12.5h0.2h127.4v-74.6L771.1,335.3z"/>
	<path class="st1" d="M774.4,340.1h-22.5v-9l-6.9-9.5"/>
	<path class="st1" d="M744.9,343.3h31.4"/>
	<path class="st1" d="M749.5,349.8c0-0.3-0.1-0.5-0.2-0.8c-0.1-0.3-0.3-0.5-0.5-0.7c-0.2-0.2-0.5-0.4-0.7-0.5
		c-0.3-0.1-0.6-0.2-0.9-0.2c-0.3,0-0.6,0.1-0.9,0.2c-0.3,0.1-0.5,0.3-0.7,0.5c-0.2,0.2-0.4,0.4-0.5,0.7c-0.1,0.3-0.2,0.5-0.2,0.8
		v7.4h4.5L749.5,349.8z"/>
	<path class="st1" d="M758.6,287.4c0-0.5-0.3-1-0.7-1.4c-0.4-0.4-1-0.6-1.6-0.6s-1.1,0.2-1.6,0.6c-0.4,0.4-0.7,0.9-0.7,1.4v15.1h4.5
		L758.6,287.4z"/>
	<path class="st1" d="M767.1,287.4c0-0.5-0.3-1-0.7-1.4c-0.4-0.4-1-0.6-1.6-0.6c-0.6,0-1.1,0.2-1.6,0.6c-0.4,0.4-0.7,0.9-0.7,1.4
		v15.1h4.5L767.1,287.4z"/>
	<path class="st1" d="M745,349.8c0-0.6-0.2-1.1-0.7-1.5c-0.4-0.4-1-0.6-1.6-0.6c-0.6,0-1.2,0.2-1.6,0.6c-0.4,0.4-0.7,0.9-0.7,1.5
		v7.4h4.5L745,349.8z"/>
	<path class="st1" d="M681.2,363.5c0.1-0.2,0-0.4,0-0.7c-0.1-0.2-0.2-0.4-0.3-0.6c-0.2-0.2-0.3-0.3-0.6-0.4
		c-0.2-0.1-0.5-0.1-0.7-0.1s-0.5,0-0.7,0.1c-0.2,0.1-0.4,0.2-0.6,0.4c-0.2,0.2-0.3,0.4-0.3,0.6c-0.1,0.2-0.1,0.4,0,0.7v5.2h3.1
		L681.2,363.5z"/>
	<path class="st1" d="M655.2,345.3c0-0.5-0.2-1.1-0.6-1.4c-0.4-0.4-1-0.6-1.6-0.6c-0.6,0-1.1,0.2-1.6,0.6c-0.4,0.4-0.6,0.9-0.6,1.4
		v7.2h4.4L655.2,345.3z"/>
	<path class="st1" d="M661.7,345.3c0-0.3,0-0.6-0.1-0.8c-0.1-0.3-0.3-0.5-0.5-0.7c-0.2-0.2-0.5-0.4-0.7-0.5
		c-0.3-0.1-0.6-0.2-0.9-0.2c-0.3,0-0.6,0.1-0.9,0.2c-0.3,0.1-0.5,0.3-0.7,0.5c-0.2,0.2-0.4,0.4-0.5,0.7c-0.1,0.3-0.1,0.5-0.1,0.8
		v7.2h4.3L661.7,345.3z"/>
	<path class="st1" d="M668.2,345.3c0-0.3,0-0.6-0.1-0.8c-0.1-0.3-0.3-0.5-0.5-0.7s-0.5-0.4-0.7-0.5c-0.3-0.1-0.6-0.2-0.9-0.2
		c-0.3,0-0.6,0.1-0.9,0.2c-0.3,0.1-0.5,0.3-0.7,0.5c-0.2,0.2-0.4,0.4-0.5,0.7s-0.1,0.5-0.1,0.8v7.2h4.4L668.2,345.3z"/>
	<path class="st1" d="M680.2,375.4c0-0.5-0.2-1-0.6-1.4c-0.4-0.4-1-0.6-1.5-0.6c-0.6,0-1.1,0.2-1.5,0.6c-0.4,0.4-0.6,0.9-0.6,1.4
		v7.1h4.3L680.2,375.4z"/>
	<path class="st1" d="M659,414.7l0.2-20.1c0-1.5-0.7-3-1.8-4s-2.7-1.7-4.4-1.7c-1.6,0-3.2,0.6-4.4,1.7c-1.2,1.1-1.8,2.5-1.8,4v20.1"
		/>
	<path class="st1" d="M678,363.5c-0.1-0.3-0.3-0.6-0.6-0.9c-0.3-0.2-0.7-0.3-1-0.3c-0.4,0-0.7,0.1-1,0.3c-0.3,0.2-0.5,0.5-0.6,0.9
		v5.2h3.1L678,363.5z"/>
	<path class="st1" d="M764.2,349.8c0-0.5-0.3-1-0.7-1.4c-0.4-0.4-1-0.6-1.6-0.6s-1.1,0.2-1.6,0.6c-0.4,0.4-0.7,0.9-0.7,1.4v7.4h4.5
		L764.2,349.8z"/>
	<path class="st1" d="M768.7,349.8c0-0.6-0.2-1.1-0.7-1.5c-0.4-0.4-1-0.6-1.6-0.6s-1.2,0.2-1.6,0.6c-0.4,0.4-0.7,0.9-0.7,1.5v7.4
		h4.5L768.7,349.8z"/>
	<path class="st1" d="M765.9,368.6c0-1.3-0.5-2.5-1.5-3.4s-2.3-1.4-3.7-1.4s-2.7,0.5-3.7,1.4c-1,0.9-1.5,2.1-1.5,3.4v16.9h10.3
		L765.9,368.6z"/>
	<path class="st1" d="M759.7,349.8c0-0.5-0.3-1-0.7-1.4c-0.4-0.4-1-0.6-1.6-0.6c-0.6,0-1.1,0.2-1.6,0.6c-0.4,0.4-0.7,0.9-0.7,1.4
		v7.4h4.5L759.7,349.8z"/>
	<path class="st1" d="M755.4,368.6h10.4"/>
	<path class="st1" d="M755.4,372.9h10.4"/>
	<path class="st1" d="M760.7,368.6v16.9"/>
	<path class="st1" d="M765.9,390.1h-10.4v10h10.4V390.1z"/>
	<path class="st1" d="M755.4,395.1h10.4"/>
	<path class="st1" d="M760.7,390.1v10"/>
	<path class="st1" d="M750.1,390.1h-10.4v10h10.4V390.1z"/>
	<path class="st1" d="M739.7,395.1h10.4"/>
	<path class="st1" d="M744.9,390.1v10"/>
	<path class="st1" d="M765.9,404.6h-10.4v10h10.4V404.6z"/>
	<path class="st1" d="M760.7,404.7v10"/>
	<path class="st1" d="M750.1,404.6h-10.4v10h10.4V404.6z"/>
	<path class="st1" d="M744.9,404.7v10"/>
	<path class="st1" d="M750.1,385.5h-5.2"/>
	<path class="st1" d="M750.1,368.6h-5.2"/>
	<path class="st1" d="M774.3,385.5h-5.2"/>
	<path class="st1" d="M774.3,368.6h-5.2"/>
	<path class="st1" d="M715.5,340.1H738v-9l6.9-9.5"/>
	<path class="st1" d="M715.5,414.7h29.4"/>
	<path class="st1" d="M744.9,343.3h-31.4"/>
	<path class="st1" d="M725.7,349.8c0-0.5,0.3-1,0.7-1.4c0.4-0.4,1-0.6,1.6-0.6c0.6,0,1.1,0.2,1.6,0.6c0.4,0.4,0.7,0.9,0.7,1.4v7.4
		h-4.5L725.7,349.8z"/>
	<path class="st1" d="M721.1,349.8c0-0.6,0.2-1.1,0.7-1.5c0.4-0.4,1-0.6,1.6-0.6c0.6,0,1.2,0.2,1.6,0.6c0.4,0.4,0.7,0.9,0.7,1.5v7.4
		h-4.5L721.1,349.8z"/>
	<path class="st1" d="M724,368.6c0-1.3,0.5-2.5,1.5-3.4s2.3-1.4,3.7-1.4c1.4,0,2.7,0.5,3.7,1.4c1,0.9,1.5,2.1,1.5,3.4v16.9h-10.2
		L724,368.6z"/>
	<path class="st1" d="M730.2,349.8c0-0.5,0.3-1,0.7-1.4c0.4-0.4,1-0.6,1.6-0.6s1.1,0.2,1.6,0.6c0.4,0.4,0.7,0.9,0.7,1.4v7.4h-4.5
		L730.2,349.8z"/>
	<path class="st1" d="M734.4,368.6H724"/>
	<path class="st1" d="M734.4,372.9H724"/>
	<path class="st1" d="M729.2,368.6v16.9"/>
	<path class="st1" d="M724,400.1h10.4v-10H724V400.1z"/>
	<path class="st1" d="M734.4,395.1H724"/>
	<path class="st1" d="M729.2,390.1v10"/>
	<path class="st1" d="M724,414.7h10.4v-10H724V414.7z"/>
	<path class="st1" d="M729.2,404.7v10"/>
	<path class="st1" d="M694.7,414.7h10.4v-10h-10.4V414.7z"/>
	<path class="st1" d="M699.9,404.6v10"/>
	<path class="st1" d="M739.7,385.5h5.2"/>
	<path class="st1" d="M739.7,368.6h5.2"/>
	<path class="st1" d="M715.5,385.5h5.2"/>
	<path class="st1" d="M715.5,368.6h5.2"/>
	<path class="st1" d="M748.4,331.1h-6.9v12.1h6.9V331.1z"/>
	<path class="st1" d="M744.9,331.1v12.1"/>
	<path class="st1" d="M748.4,335.3h-6.9v3.7h6.9V335.3z"/>
	<path class="st1" d="M681.5,340.9h-6.9V353h6.9V340.9z"/>
	<path class="st1" d="M678,340.9V353"/>
	<path class="st1" d="M681.5,345.1h-6.9v3.7h6.9V345.1z"/>
	<path class="st1" d="M682.2,324.1l2.2,5.8H678"/>
	<path class="st1" d="M684.3,329.9v84.7H678"/>
	<path class="st1" d="M678,332.9h7.7"/>
	<path class="st1" d="M678,387.4v3.5"/>
	<path class="st1" d="M678,393v3.5"/>
	<path class="st1" d="M678,398.6v3.5"/>
	<path class="st1" d="M681.2,387.4v3.5"/>
	<path class="st1" d="M681.2,393v3.5"/>
	<path class="st1" d="M681.2,398.6v3.5"/>
	<path class="st1" d="M673.8,324.1l-2.2,5.8h6.4"/>
	<path class="st1" d="M671.6,329.9v84.7h6.4"/>
	<path class="st1" d="M678,332.9h-7.7"/>
	<path class="st1" d="M674.8,387.4v3.5"/>
	<path class="st1" d="M674.8,393v3.5"/>
	<path class="st1" d="M674.8,398.6v3.5"/>
	<path class="st1" d="M699.9,338.5l5.9,8.5v10.2h9.7"/>
	<path class="st1" d="M703,349.6c0-0.7-0.3-1.5-0.9-2c-0.6-0.5-1.4-0.8-2.2-0.8c-0.8,0-1.6,0.3-2.2,0.8c-0.6,0.5-0.9,1.2-0.9,2v7.6
		h6.1V349.6z"/>
	<path class="st1" d="M704.4,376.2c0-0.3-0.2-0.7-0.5-0.9c-0.3-0.2-0.6-0.4-1-0.4c-0.4,0-0.7,0.1-1,0.4c-0.3,0.2-0.4,0.6-0.5,0.9
		v7.6h2.9V376.2z"/>
	<path class="st1" d="M710.7,376.2c0-0.3-0.2-0.7-0.5-0.9c-0.3-0.2-0.6-0.4-1-0.4c-0.4,0-0.7,0.1-1,0.4c-0.3,0.2-0.4,0.6-0.5,0.9
		v7.6h2.9V376.2z"/>
	<path class="st1" d="M704.4,363.8h-2.9v5.6h2.9V363.8z"/>
	<path class="st1" d="M710.7,363.8h-2.9v5.6h2.9V363.8z"/>
	<path class="st1" d="M702.1,389.3h-4.4v8.3h4.4V389.3z"/>
	<path class="st1" d="M710.7,389.3h-4.4v8.3h4.4V389.3z"/>
	<path class="st1" d="M684.3,414.7h31.2"/>
	<path class="st1" d="M699.9,338.5l-5.9,8.5v10.2h-9.7"/>
	<path class="st1" d="M695.5,376.2c0-0.3,0.2-0.7,0.5-0.9c0.3-0.2,0.6-0.4,1-0.4c0.4,0,0.7,0.1,1,0.4c0.3,0.2,0.4,0.6,0.5,0.9v7.6
		h-2.9V376.2z"/>
	<path class="st1" d="M689.2,376.2c0-0.3,0.2-0.7,0.5-0.9c0.3-0.2,0.6-0.4,1-0.4c0.4,0,0.7,0.1,1,0.4c0.3,0.2,0.4,0.6,0.5,0.9v7.6
		h-2.9V376.2z"/>
	<path class="st1" d="M695.5,369.4h2.9v-5.6h-2.9V369.4z"/>
	<path class="st1" d="M689.2,369.4h2.9v-5.6h-2.9V369.4z"/>
	<path class="st1" d="M649,370.9h2.9v-5.6H649V370.9z"/>
	<path class="st1" d="M654,370.9h2.9v-5.6H654V370.9z"/>
	<path class="st1" d="M649,378.5h2.9v-5.6H649V378.5z"/>
	<path class="st1" d="M654,378.5h2.9v-5.6H654V378.5z"/>
	<path class="st1" d="M660.7,370.9h2.9v-5.6h-2.9V370.9z"/>
	<path class="st1" d="M665.8,370.9h2.9v-5.6h-2.9V370.9z"/>
	<path class="st1" d="M660.7,378.5h2.9v-5.6h-2.9V378.5z"/>
	<path class="st1" d="M665.8,378.5h2.9v-5.6h-2.9V378.5z"/>
	<path class="st1" d="M689.2,397.6h4.4v-8.3h-4.4V397.6z"/>
	<path class="st1" d="M657.7,324.1l13.9,16"/>
	<path class="st1" d="M646.8,394.6h12.4"/>
	<path class="st1" d="M646.8,398.9h12.4"/>
	<path class="st1" d="M646.8,403.3h12.4"/>
	<path class="st1" d="M653,403.3v11.3"/>
	<path class="st1" d="M659,414.7h12.6"/>
	<path class="st1" d="M531.6,340.1h22.5v-9l6.9-9.5"/>
	<path class="st1" d="M561,343.3h-31.4"/>
	<path class="st1" d="M556.4,349.8c0-0.5,0.3-1,0.7-1.4c0.4-0.4,1-0.6,1.6-0.6c0.6,0,1.1,0.2,1.6,0.6c0.4,0.4,0.7,0.9,0.7,1.4v7.4
		h-4.5L556.4,349.8z"/>
	<path class="st1" d="M560.9,349.8c0-0.5,0.3-1,0.7-1.4c0.4-0.4,1-0.6,1.6-0.6c0.6,0,1.1,0.2,1.6,0.6c0.4,0.4,0.7,0.9,0.7,1.4v7.4
		H561L560.9,349.8z"/>
	<path class="st1" d="M624.8,363.5c0-0.2,0-0.4,0-0.7c0.1-0.2,0.2-0.4,0.3-0.6c0.2-0.2,0.3-0.3,0.6-0.4c0.2-0.1,0.5-0.1,0.7-0.1
		c0.2,0,0.5,0,0.7,0.1c0.2,0.1,0.4,0.2,0.6,0.4c0.2,0.2,0.3,0.4,0.3,0.6c0.1,0.2,0.1,0.4,0,0.7v5.2h-3.1L624.8,363.5z"/>
	<path class="st1" d="M644.2,345.3c0-0.5,0.2-1.1,0.6-1.4c0.4-0.4,1-0.6,1.6-0.6c0.6,0,1.1,0.2,1.6,0.6c0.4,0.4,0.6,0.9,0.6,1.4v7.2
		h-4.4L644.2,345.3z"/>
	<path class="st1" d="M637.7,345.3c0-0.5,0.2-1.1,0.6-1.4c0.4-0.4,1-0.6,1.6-0.6c0.6,0,1.1,0.2,1.6,0.6c0.4,0.4,0.6,0.9,0.6,1.4v7.2
		h-4.3L637.7,345.3z"/>
	<path class="st1" d="M625.7,375.4c0-0.5,0.2-1,0.6-1.4c0.4-0.4,1-0.6,1.5-0.6s1.1,0.2,1.5,0.6c0.4,0.4,0.6,0.9,0.6,1.4v7.1h-4.3
		L625.7,375.4z"/>
	<path class="st1" d="M627.9,363.5c-0.1-0.2,0-0.4,0-0.7c0.1-0.2,0.2-0.4,0.3-0.6c0.2-0.2,0.3-0.3,0.6-0.4c0.2-0.1,0.5-0.1,0.7-0.1
		s0.5,0,0.7,0.1c0.2,0.1,0.4,0.2,0.6,0.4c0.2,0.2,0.3,0.4,0.3,0.6c0.1,0.2,0.1,0.4,0,0.7v5.2h-3.1L627.9,363.5z"/>
	<path class="st1" d="M541.7,349.8c0-0.6,0.2-1.1,0.7-1.5c0.4-0.4,1-0.6,1.6-0.6c0.6,0,1.2,0.2,1.6,0.6c0.4,0.4,0.7,0.9,0.7,1.5v7.4
		h-4.5L541.7,349.8z"/>
	<path class="st1" d="M537.2,349.8c0-0.5,0.3-1,0.7-1.4c0.4-0.4,1-0.6,1.6-0.6c0.6,0,1.1,0.2,1.6,0.6c0.4,0.4,0.7,0.9,0.7,1.4v7.4
		h-4.5L537.2,349.8z"/>
	<path class="st1" d="M540.1,368.6c0.1-1.2,0.6-2.4,1.6-3.3c1-0.9,2.3-1.3,3.6-1.3c1.3,0,2.6,0.5,3.6,1.3c1,0.9,1.5,2,1.6,3.3v16.9
		h-10.3L540.1,368.6z"/>
	<path class="st1" d="M546.3,349.8c0-0.6,0.2-1.1,0.7-1.5s1-0.6,1.6-0.6c0.6,0,1.2,0.2,1.6,0.6c0.4,0.4,0.7,0.9,0.7,1.5v7.4h-4.5
		L546.3,349.8z"/>
	<path class="st1" d="M550.5,368.6h-10.4"/>
	<path class="st1" d="M550.5,372.9h-10.4"/>
	<path class="st1" d="M545.3,368.6v16.9"/>
	<path class="st1" d="M540.1,400.1h10.4v-10h-10.4V400.1z"/>
	<path class="st1" d="M550.5,395.1h-10.4"/>
	<path class="st1" d="M545.3,390.1v10"/>
	<path class="st1" d="M555.8,400.1h10.4v-10h-10.4V400.1z"/>
	<path class="st1" d="M566.2,395.1h-10.4"/>
	<path class="st1" d="M561,390.1v10"/>
	<path class="st1" d="M540.1,414.7h10.4v-10h-10.4V414.7z"/>
	<path class="st1" d="M545.3,404.7v10"/>
	<path class="st1" d="M555.8,414.7h10.4v-10h-10.4V414.7z"/>
	<path class="st1" d="M561,404.7v10"/>
	<path class="st1" d="M555.8,385.5h5.2"/>
	<path class="st1" d="M555.8,368.6h5.2"/>
	<path class="st1" d="M531.6,385.5h5.2"/>
	<path class="st1" d="M531.6,368.6h5.2"/>
	<path class="st1" d="M590.4,340.1h-22.5v-9l-6.9-9.5"/>
	<path class="st1" d="M561,343.3h31.4"/>
	<path class="st1" d="M580.2,349.8c0-0.6-0.2-1.1-0.7-1.5c-0.4-0.4-1-0.6-1.6-0.6s-1.2,0.2-1.6,0.6c-0.4,0.4-0.7,0.9-0.7,1.5v7.4
		h4.5L580.2,349.8z"/>
	<path class="st1" d="M584.8,349.8c0-0.5-0.3-1-0.7-1.4c-0.4-0.4-1-0.6-1.6-0.6s-1.1,0.2-1.6,0.6c-0.4,0.4-0.7,0.9-0.7,1.4v7.4h4.5
		L584.8,349.8z"/>
	<path class="st1" d="M581.9,368.6c-0.1-1.2-0.6-2.4-1.6-3.3c-1-0.9-2.3-1.3-3.6-1.3c-1.3,0-2.6,0.5-3.6,1.3c-1,0.9-1.5,2-1.6,3.3
		v16.9h10.3L581.9,368.6z"/>
	<path class="st1" d="M575.7,349.8c0-0.6-0.2-1.1-0.7-1.5c-0.4-0.4-1-0.6-1.6-0.6c-0.6,0-1.2,0.2-1.6,0.6c-0.4,0.4-0.7,0.9-0.7,1.5
		v7.4h4.5L575.7,349.8z"/>
	<path class="st1" d="M571.5,368.6h10.4"/>
	<path class="st1" d="M571.5,372.9h10.4"/>
	<path class="st1" d="M576.7,368.6v16.9"/>
	<path class="st1" d="M581.9,390.1h-10.4v10h10.4V390.1z"/>
	<path class="st1" d="M571.5,395.1h10.4"/>
	<path class="st1" d="M576.7,390.1v10"/>
	<path class="st1" d="M581.9,404.7h-10.4v10h10.4V404.7z"/>
	<path class="st1" d="M576.7,404.7v10"/>
	<path class="st1" d="M611.2,404.6h-10.4v10h10.4V404.6z"/>
	<path class="st1" d="M606,404.6v10"/>
	<path class="st1" d="M566.2,385.5H561"/>
	<path class="st1" d="M566.2,368.6H561"/>
	<path class="st1" d="M590.4,385.5h-5.2"/>
	<path class="st1" d="M590.4,368.6h-5.2"/>
	<path class="st1" d="M557.5,343.3h6.9v-12.1h-6.9V343.3z"/>
	<path class="st1" d="M561,331.1v12.1"/>
	<path class="st1" d="M557.5,339h6.9v-3.7h-6.9V339z"/>
	<path class="st1" d="M624.4,353h6.9v-12.2h-6.9V353z"/>
	<path class="st1" d="M627.9,340.9V353"/>
	<path class="st1" d="M624.4,348.8h6.9v-3.7h-6.9V348.8z"/>
	<path class="st1" d="M623.8,324.1l-2.2,5.8h6.4"/>
	<path class="st1" d="M621.6,329.9v84.7"/>
	<path class="st1" d="M627.9,332.9h-7.7"/>
	<path class="st1" d="M627.9,387.4v3.5"/>
	<path class="st1" d="M627.9,393v3.5"/>
	<path class="st1" d="M627.9,398.6v3.5"/>
	<path class="st1" d="M624.8,387.4v3.5"/>
	<path class="st1" d="M624.8,393v3.5"/>
	<path class="st1" d="M624.8,398.6v3.5"/>
	<path class="st1" d="M632.1,324.1l2.2,5.8h-6.4"/>
	<path class="st1" d="M634.3,329.9v84.7"/>
	<path class="st1" d="M627.9,332.9h7.7"/>
	<path class="st1" d="M631.1,387.4v3.5"/>
	<path class="st1" d="M631.1,393v3.5"/>
	<path class="st1" d="M631.1,398.6v3.5"/>
	<path class="st1" d="M606,338.5l-5.9,8.5v10.2h-9.7"/>
	<path class="st1" d="M602.9,349.6c0-0.7,0.3-1.5,0.9-2c0.6-0.5,1.4-0.8,2.2-0.8c0.8,0,1.6,0.3,2.2,0.8c0.6,0.5,0.9,1.2,0.9,2v7.6
		h-6.1V349.6z"/>
	<path class="st1" d="M601.6,376.2c0-0.3,0.2-0.7,0.5-0.9c0.3-0.2,0.6-0.4,1-0.4c0.4,0,0.7,0.1,1,0.4c0.3,0.2,0.4,0.6,0.5,0.9v7.6
		h-2.9V376.2z"/>
	<path class="st1" d="M595.3,376.2c0-0.3,0.2-0.7,0.5-0.9c0.3-0.2,0.6-0.4,1-0.4c0.4,0,0.7,0.1,1,0.4c0.3,0.2,0.4,0.6,0.5,0.9v7.6
		h-2.9V376.2z"/>
	<path class="st1" d="M601.6,369.4h2.9v-5.6h-2.9V369.4z"/>
	<path class="st1" d="M595.3,369.4h2.9v-5.6h-2.9V369.4z"/>
	<path class="st1" d="M603.8,397.6h4.4v-8.3h-4.4V397.6z"/>
	<path class="st1" d="M595.3,397.6h4.4v-8.3h-4.4V397.6z"/>
	<path class="st1" d="M606,338.5l5.9,8.5v10.2h9.7"/>
	<path class="st1" d="M610.4,376.2c0-0.3-0.2-0.7-0.5-0.9c-0.3-0.2-0.6-0.4-1-0.4s-0.7,0.1-1,0.4c-0.3,0.2-0.4,0.6-0.5,0.9v7.6h2.9
		V376.2z"/>
	<path class="st1" d="M616.7,376.2c0-0.3-0.2-0.7-0.5-0.9c-0.3-0.2-0.6-0.4-1-0.4c-0.4,0-0.7,0.1-1,0.4c-0.3,0.2-0.4,0.6-0.5,0.9
		v7.6h2.9V376.2z"/>
	<path class="st1" d="M610.4,363.8h-2.9v5.6h2.9V363.8z"/>
	<path class="st1" d="M616.7,363.8h-2.9v5.6h2.9V363.8z"/>
	<path class="st1" d="M651.9,365.3H649v5.6h2.9V365.3z"/>
	<path class="st1" d="M651.9,372.9H649v5.6h2.9V372.9z"/>
	<path class="st1" d="M645.2,365.3h-2.9v5.6h2.9V365.3z"/>
	<path class="st1" d="M640.1,365.3h-2.9v5.6h2.9V365.3z"/>
	<path class="st1" d="M645.2,372.9h-2.9v5.6h2.9V372.9z"/>
	<path class="st1" d="M640.1,372.9h-2.9v5.6h2.9V372.9z"/>
	<path class="st1" d="M616.7,389.3h-4.4v8.3h4.4V389.3z"/>
	<path class="st1" d="M648.2,324.1l-13.9,16"/>
	<path class="st1" d="M771.1,255.6h-14.8"/>
	<path class="st1" d="M774.4,414.7h-29.4"/>
	<path class="st1" d="M771.1,276.2h-14.8"/>
	<path class="st1" d="M756.3,273h14.8"/>
	<path class="st1" d="M761.2,267.9c2.2-2.5,1.8-6.1-0.9-8.1c-2.7-2-6.6-1.6-8.8,0.8c-2.2,2.5-1.8,6.1,0.9,8.1
		C755,270.8,759,270.4,761.2,267.9z"/>
	<path class="st1" d="M745.5,287.4c0-0.5,0.3-1,0.7-1.4c0.4-0.4,1-0.6,1.6-0.6s1.1,0.2,1.6,0.6c0.4,0.4,0.7,0.9,0.7,1.4v15.1h-4.5
		L745.5,287.4z"/>
	<path class="st1" d="M741.5,255.6h14.8"/>
	<path class="st1" d="M741.5,276.1h14.8"/>
	<path class="st1" d="M756.3,273h-14.8"/>
	<path class="st1" d="M741.5,281.8h29.6"/>
	<path class="st1" d="M741.5,279h29.6"/>
	<path class="st2" d="M744.9,308.1h7.3l18.8,27.2"/>
	<path class="st2" d="M744.9,308.1h-3.4"/>
	<path class="st2" d="M590.4,340.1v74.6"/>
	<path class="st2" d="M771.1,335.3L771.1,335.3l0-59.2h3.2l-3.2-3.2v-17.4l-14.8-27.3l-14.8,27.3V273l-3.2,3.2h3.2v32h-3.9l-11.1,16
		h-44.4v0L678,313l-4.2,11.1h-16.1l-4.8-5.5l-4.8,5.5h-16.1v0l-4.2-11.1l-4.2,11.1h-44.4l-11.1-16H561h-7.3l-22.1,32v74.6H561h29.4
		h31.2h6.4h6.4h12.5h0.2h127.4v-74.6L771.1,335.3z"/>
	<path class="st2" d="M726.6,324.1l-11.1,16"/>
	<path class="st2" d="M715.5,340.1v74.6"/>
	<path class="st2" d="M579.3,324.1l11.1,16"/>
	<path class="st2" d="M2.2,414.7"/>
	<path class="st0" d="M787,305.5c36.1,92.9-0.4,93,0,92.9C787.4,398.5,751,398.4,787,305.5z"/>
	<path class="st1" d="M787,414.7v-59.2"/>
	<path class="st2" d="M787,398.4c0.4,0.1-36.1,0,0-92.9"/>
	<path class="st2" d="M787,398.4c-0.4,0.1,36.1,0,0-92.9"/>
	<path class="st0" d="M502.6,293.3l3.9-2.2l2.4-12.3c0,0-0.3-2.1-3.2-4.4c-1.8-1.3-3-3.3-3.2-5.4c-0.1,1.1-0.5,2.1-1,3
		c-0.5,0.9-1.3,1.8-2.2,2.4c-2.9,2.3-3.2,4.4-3.2,4.4l2.4,12.3L502.6,293.3z"/>
	<path class="st0" d="M525,293.3l3.9-2.2l2.4-12.3c0,0-0.3-2.1-3.2-4.4c-0.9-0.7-1.6-1.5-2.2-2.4c-0.5-0.9-0.9-2-1-3
		c-0.2,2.1-1.4,4.1-3.2,5.4c-2.9,2.3-3.2,4.4-3.2,4.4l2.4,12.3L525,293.3z"/>
	<path class="st0" d="M513.7,414.7h7.6l-4.7-33.6h-2.8h-2.8l-4.7,33.6H513.7z"/>
	<path class="st2" d="M502.6,269c-0.1,1.1-0.5,2.1-1,3c-0.5,0.9-1.3,1.8-2.2,2.4c-2.9,2.3-3.2,4.4-3.2,4.4l2.4,12.3l3.9,2.2"/>
	<path class="st2" d="M499,293.3h14.8"/>
	<path class="st2" d="M502.6,269c0.2,2.1,1.4,4.1,3.2,5.4c2.9,2.3,3.2,4.4,3.2,4.4l-2.4,12.3l-3.9,2.2"/>
	<path class="st2" d="M525,269c0.1,1.1,0.4,2.1,1,3c0.5,0.9,1.3,1.8,2.2,2.4c2.9,2.3,3.2,4.4,3.2,4.4l-2.4,12.3l-3.9,2.2"/>
	<path class="st2" d="M528.6,293.3h-14.8"/>
	<path class="st2" d="M525,269c-0.2,2.1-1.4,4.1-3.2,5.4c-2.9,2.3-3.2,4.4-3.2,4.4l2.4,12.3l3.9,2.2"/>
	<path class="st2" d="M513.7,286.2v94.8"/>
	<path class="st2" d="M513.7,381.1h-2.8l-4.7,33.6h7.6"/>
	<path class="st2" d="M511.7,340.7h4.1"/>
	<path class="st2" d="M511.7,344h4.1"/>
	<path class="st2" d="M511.7,347.3h4.1"/>
	<path class="st2" d="M513.7,381.1h2.8l4.7,33.6h-7.6"/>
	<path class="st1" d="M507,409h13.6"/>
	<path class="st1" d="M512.5,393.6l-0.9,12.4"/>
	<path class="st1" d="M515,393.6l0.9,12.4"/>
	<path class="st1" d="M509.6,390.1h8.2"/>
	<path class="st1" d="M496.3,278.8h12.7"/>
	<path class="st1" d="M518.7,278.8h12.7"/>
	<path class="st1" d="M500.2,278.8l2.4,14.5"/>
	<path class="st1" d="M505,278.8l-2.4,14.5"/>
	<path class="st1" d="M522.6,278.8l2.4,14.5"/>
	<path class="st1" d="M527.4,278.8l-2.4,14.5"/>
	<path class="st1" d="M500.1,297.5c0.5-1.5,2.2-2.9,5.6-2.9c3.4,0,8,3.9,8,9.8"/>
	<path class="st1" d="M527.3,297.5c-0.5-1.5-2.2-2.9-5.6-2.9c-3.4,0-8,3.9-8,9.8"/>
	<path class="st0" d="M17.4,330.9c27.7,71.3-0.3,71.3,0,71.3C17.7,402.3-10.2,402.2,17.4,330.9z"/>
	<path class="st1" d="M17.4,414.7v-45.4"/>
	<path class="st2" d="M17.4,402.2c0.3,0.1-27.7,0,0-71.3"/>
	<path class="st2" d="M17.4,402.2c-0.3,0.1,27.7,0,0-71.3"/>
	<path class="st0" d="M899.7,397.5c0,0,31.7-20.3,13.2-28.4c7.9-20.3-3.7-38.2-13.2-38.2c-9.5,0-21.2,17.9-13.2,38.2
		C868,377.2,899.7,397.5,899.7,397.5z"/>
	<path class="st2" d="M899.7,397.5c0,0-31.7-20.3-13.2-28.4c-7.9-20.3,3.7-38.2,13.2-38.2"/>
	<path class="st2" d="M899.7,397.5c0,0,31.7-20.3,13.2-28.4c7.9-20.3-3.7-38.2-13.2-38.2"/>
	<path class="st1" d="M899.7,344.6v70.8"/>
	<path class="st1" d="M909.2,377.8l-9.5,8.8"/>
	<path class="st1" d="M890.2,377.8l9.5,8.8"/>
	<path class="st0" d="M390.3,396.1c0,0,34.3-21.9,14.3-30.7c8.6-21.9-4-41.2-14.3-41.2c-10.3,0-22.9,19.3-14.3,41.2
		C356,374.1,390.3,396.1,390.3,396.1z"/>
	<path class="st2" d="M390.3,396.1c0,0-34.3-21.9-14.3-30.7c-8.6-21.9,4-41.2,14.3-41.2"/>
	<path class="st2" d="M390.3,396.1c0,0,34.3-21.9,14.3-30.7c8.6-21.9-4-41.2-14.3-41.2"/>
	<path class="st1" d="M390.3,338.9v76.5"/>
	<path class="st1" d="M400.5,374.8l-10.3,9.5"/>
	<path class="st1" d="M380,374.8l10.3,9.5"/>
	<path class="st0" d="M57.6,351.6h-3.9l-4.3,63.1h6.2h6.2L57.6,351.6z"/>
	<path class="st0" d="M55.6,276.1c1.3,0,2.3-1,2.3-2.2c0-1.2-1-2.2-2.3-2.2s-2.3,1-2.3,2.2C53.3,275.1,54.3,276.1,55.6,276.1z"/>
	<path class="st0" d="M55.6,352.1c2.1,0,3.9-1.6,3.9-3.6c0-2-1.7-3.6-3.9-3.6s-3.9,1.6-3.9,3.6C51.8,350.5,53.5,352.1,55.6,352.1z"
		/>
	<path class="st0" d="M60.5,302.8l4.9-18.3l-7.6-5.4h-2.2h-2.2l-7.6,5.4l4.9,18.3"/>
	<path class="st2" d="M49.4,309c-0.2-2.5,2-2.9,3.4-2.4c2.7,0.9,2.8,5,2.8,5V345"/>
	<path class="st2" d="M55.6,279h-2.2l-7.6,5.4l4.9,18.3h4.9"/>
	<path class="st2" d="M55.6,279h2.2l7.6,5.4l-4.9,18.3h-4.9"/>
	<path class="st2" d="M61.8,309c0.2-2.5-2-2.9-3.4-2.4c-2.7,0.9-2.8,5-2.8,5V345"/>
	<path class="st2" d="M55.6,276.1c1.3,0,2.3-1,2.3-2.2c0-1.2-1-2.2-2.3-2.2s-2.3,1-2.3,2.2C53.3,275.1,54.3,276.1,55.6,276.1z"/>
	<path class="st2" d="M55.6,271.8v-3.6"/>
	<path class="st2" d="M55.6,352.1c2.1,0,3.9-1.6,3.9-3.6c0-2-1.7-3.6-3.9-3.6s-3.9,1.6-3.9,3.6C51.8,350.5,53.5,352.1,55.6,352.1z"
		/>
	<path class="st2" d="M53.6,351.6l-4.3,63.1h6.2"/>
	<path class="st2" d="M57.6,351.6l4.3,63.1h-6.2"/>
	<path class="st1" d="M45.9,284.5h19.5"/>
	<path class="st1" d="M53.3,302.8l-1.5-18.3l3.9-5.4"/>
	<path class="st1" d="M57.9,302.8l1.5-18.3l-3.9-5.4"/>
	<path class="st1" d="M59.8,384h-8.3"/>
	<path class="st1" d="M51.3,385.6h8.6"/>
	<path class="st1" d="M55.6,380.9v-13.6"/>
	<path class="st1" d="M49.6,411.3h12"/>
	<path class="st1" d="M54.1,389.8l-0.9,18.1"/>
	<path class="st1" d="M57.2,389.8l0.9,18.1"/>
	<path class="st2" d="M595.3,195.4v7.9"/>
	<path class="st2" d="M599.6,199.4H591"/>
	<path class="st2" d="M754,119.4v7.9"/>
	<path class="st2" d="M758.3,123.4h-8.6"/>
	<path class="st2" d="M157,232.4v11.8"/>
	<path class="st2" d="M163.4,238.3h-12.8"/>
	<path class="st2" d="M634.3,272.7v11.8"/>
	<path class="st2" d="M640.7,278.6h-12.8"/>
	<path class="st2" d="M720.7,215.9v11.8"/>
	<path class="st2" d="M727.1,221.8h-12.8"/>
</g>
</svg>
